<?xml version="1.0" standalone="no"?>
<!DOCTYPE svg PUBLIC "-//W3C//DTD SVG 20010904//EN"
 "http://www.w3.org/TR/2001/REC-SVG-20010904/DTD/svg10.dtd">
<svg version="1.0" xmlns="http://www.w3.org/2000/svg"
 width="300.000000pt" height="390.000000pt" viewBox="0 0 300.000000 390.000000"
 preserveAspectRatio="xMidYMid meet">
<metadata>
Created by potrace 1.10, written by Peter Selinger 2001-2011
</metadata>
<g transform="translate(0.000000,390.000000) scale(0.100000,-0.100000)"
fill="#000000" stroke="none">
<path d="M1146 3893 c-3 -4 -12 -8 -19 -9 -70 -11 -92 -16 -120 -27 -48 -21
-90 -60 -116 -109 -26 -51 -76 -108 -95 -108 -8 0 -19 -7 -26 -15 -17 -20 -30
-19 -31 3 0 9 -8 31 -18 47 -20 34 -31 35 -177 16 -6 0 -22 -12 -36 -25 -46
-47 -20 -166 37 -166 13 0 25 -21 25 -46 0 -12 -4 -13 -22 -3 -12 6 -56 12
-98 12 -104 0 -155 -27 -227 -120 -34 -43 -41 -67 -22 -79 6 -3 8 -17 5 -30
-4 -14 -2 -24 4 -24 5 0 10 -7 10 -15 0 -8 11 -17 25 -21 34 -8 32 -25 -3 -18
-22 5 -36 -2 -73 -35 -43 -37 -46 -44 -53 -102 -3 -35 -13 -74 -22 -87 -24
-37 -32 -74 -22 -102 17 -45 18 -67 3 -80 -32 -27 -17 -81 31 -111 19 -11 34
-25 34 -29 0 -5 -11 -26 -26 -47 -20 -30 -24 -45 -19 -74 5 -26 1 -45 -15 -71
-22 -38 -20 -77 5 -98 12 -10 12 -6 2 19 -17 46 2 75 65 100 50 19 49 22 -4
25 -21 1 -36 16 -17 16 10 1 9 3 -4 11 -17 10 -24 39 -9 39 5 0 14 11 20 25 6
14 17 25 24 25 7 0 19 9 26 20 10 16 10 20 -1 20 -7 0 -34 13 -60 30 -40 25
-47 34 -47 61 0 28 2 31 26 26 14 -2 37 1 51 8 24 13 24 13 -16 20 -43 7 -49
13 -28 34 10 10 9 14 -5 22 -23 13 -23 57 -2 88 13 18 22 21 43 16 14 -4 23
-3 18 1 -4 4 0 15 8 24 14 15 12 16 -14 12 -19 -3 -30 1 -34 12 -6 16 3 20 32
17 10 -2 9 3 -3 21 -23 32 -20 57 9 70 14 6 25 17 25 24 0 19 47 29 65 14 7
-6 16 -21 18 -33 3 -16 5 -13 6 9 1 35 23 50 41 29 8 -10 8 -19 1 -34 -14 -25
-14 -31 0 -31 6 0 19 10 30 23 22 26 26 10 4 -19 -8 -10 -14 -28 -14 -39 0
-19 1 -19 9 1 8 20 96 62 107 50 3 -3 3 -12 -1 -21 -6 -18 -105 -67 -118 -59
-4 3 -8 0 -8 -6 0 -8 14 -9 45 -4 37 5 45 3 45 -9 0 -22 -17 -30 -66 -30 -43
0 -67 -20 -38 -31 20 -8 18 -40 -5 -60 -19 -17 -31 -11 -44 24 -3 8 -6 -15 -6
-51 -1 -61 1 -67 24 -77 24 -11 25 -10 25 18 0 46 17 80 40 80 24 0 24 3 5
-51 -21 -58 -67 -103 -96 -94 -18 6 -21 4 -15 -10 3 -9 8 -28 11 -41 16 -80
17 -80 25 -59 5 11 9 31 9 44 1 31 142 266 198 330 24 27 52 71 63 97 l21 47
-27 29 c-15 15 -30 26 -33 23 -2 -3 8 -18 23 -34 l27 -29 -36 -6 c-42 -8 -53
-3 -36 17 15 19 -9 43 -26 26 -14 -14 -33 -3 -33 19 0 10 -7 3 -16 -15 -20
-41 -47 -45 -38 -7 6 24 5 25 -15 14 -24 -12 -51 1 -51 25 0 7 -20 18 -45 24
-49 12 -57 27 -22 40 22 9 22 9 -5 21 -34 16 -36 34 -5 55 12 8 22 20 22 25 0
16 74 78 103 85 46 12 113 17 130 9 9 -4 26 -7 37 -8 13 -1 19 -7 18 -19 -1
-15 4 -18 23 -14 32 6 42 -12 17 -32 -27 -22 -25 -48 4 -56 25 -6 63 -35 63
-47 0 -5 -12 -8 -27 -8 -21 0 -24 -3 -15 -12 20 -20 14 -26 -28 -33 l-40 -7
26 -34 26 -34 42 47 c86 98 83 86 45 149 -19 31 -49 74 -68 96 l-35 41 27 22
c32 28 29 67 -10 107 -24 25 -52 30 -37 7 3 -6 8 -8 12 -5 3 3 15 -8 28 -25
20 -28 21 -33 8 -46 -12 -13 -20 -13 -57 0 -49 16 -64 47 -23 47 33 0 33 13 1
30 -34 18 -31 34 11 59 42 25 59 18 73 -33 9 -30 9 -30 10 13 1 38 3 43 21 38
10 -3 21 0 23 6 7 21 36 -2 45 -36 13 -47 -5 -117 -30 -117 -23 0 -23 3 10
-66 l27 -59 3 53 c2 28 6 52 11 52 4 0 12 15 19 34 14 38 58 86 78 86 10 0 14
-14 14 -49 0 -39 -4 -52 -22 -64 -72 -47 -93 -96 -86 -197 l3 -45 27 39 27 39
-20 28 c-11 15 -17 37 -15 51 3 12 5 25 5 27 1 3 12 -6 26 -19 15 -14 23 -30
20 -39 -3 -9 11 1 31 22 20 20 40 34 44 32 4 -3 15 4 25 15 22 24 38 25 55 5
7 -8 17 -15 22 -15 6 0 5 7 -2 15 -13 15 -2 15 78 -1 12 -2 36 -23 53 -47 34
-46 33 -25 -3 46 -23 47 -16 88 8 47 9 -14 13 -17 10 -7 -3 10 -6 25 -6 32 0
24 -69 9 -92 -20 -24 -31 -74 -33 -72 -2 1 12 -7 20 -28 24 -26 5 -28 9 -23
34 6 26 4 29 -20 29 -21 0 -26 4 -21 17 4 9 1 20 -5 24 -18 11 -1 29 27 29 13
0 24 5 24 10 0 6 10 10 23 10 l22 0 -24 19 c-23 18 -23 18 -5 39 10 12 24 22
31 22 7 0 13 7 13 15 0 8 6 15 14 15 8 0 16 5 18 12 10 28 248 44 248 17 0 -4
14 -7 31 -7 20 1 35 -5 41 -15 5 -10 15 -17 23 -17 10 0 13 -11 12 -36 -2 -32
-8 -38 -57 -65 -30 -17 -71 -32 -90 -34 -53 -5 -162 -25 -174 -32 -6 -4 -26
-7 -46 -6 -32 0 -32 0 -5 -4 l30 -5 -30 -14 c-16 -8 -22 -12 -12 -9 10 3 48
12 85 21 37 9 86 23 110 30 37 11 44 11 49 -2 8 -21 -26 -57 -43 -43 -20 16
-26 -5 -18 -71 4 -37 10 -57 17 -53 7 4 8 -19 4 -72 l-6 -77 23 21 c12 12 27
21 34 21 23 0 22 21 -2 42 -23 21 -25 27 -16 63 5 25 5 44 -1 51 -11 14 6 49
39 82 13 13 21 29 18 37 -5 13 35 26 82 25 13 0 22 6 22 15 0 9 9 15 24 15 13
0 29 7 36 15 7 9 18 14 24 12 6 -2 17 9 23 26 15 35 34 31 48 -10 6 -17 15
-28 23 -25 7 2 20 -2 29 -9 8 -8 28 -12 43 -11 17 2 30 -2 33 -12 3 -8 25 -18
51 -21 25 -4 44 -11 41 -15 -8 -13 6 -40 21 -40 7 0 17 -12 20 -27 4 -16 11
-33 16 -40 5 -7 5 -13 0 -17 -5 -3 -7 -27 -4 -52 4 -41 2 -49 -19 -65 -22 -18
-22 -20 -7 -29 10 -6 15 -18 12 -28 -5 -14 -4 -14 4 -3 9 13 13 13 27 1 15
-13 16 -8 9 60 -4 48 -3 71 3 67 6 -4 13 18 17 54 7 67 1 86 -19 69 -11 -9
-16 -6 -25 11 -14 26 3 42 35 35 11 -3 34 -8 50 -12 43 -9 84 -27 79 -35 -2
-4 4 -13 14 -20 16 -13 16 -12 3 4 -14 18 -12 18 25 13 28 -4 32 -4 14 3 -14
4 -44 18 -67 30 -25 12 -69 23 -107 26 -50 4 -80 13 -130 41 -68 37 -78 49
-48 57 16 4 16 5 0 6 -21 1 -25 41 -4 41 8 0 17 7 20 16 4 12 15 15 36 12 19
-3 30 0 30 7 0 16 101 26 142 14 18 -5 45 -9 59 -9 15 0 30 -7 33 -16 3 -8 10
-12 16 -9 12 7 42 -19 33 -29 -4 -3 1 -6 10 -6 15 0 57 -33 57 -45 0 -2 -12
-11 -27 -19 -26 -14 -26 -15 -6 -16 12 0 25 -4 28 -10 3 -5 17 -10 31 -10 28
0 32 -15 7 -29 -17 -10 -17 -10 0 -11 27 0 20 -20 -13 -34 -28 -11 -29 -13
-13 -29 15 -15 15 -17 -12 -27 -15 -6 -36 -22 -47 -35 -14 -18 -29 -25 -56
-25 -23 0 -32 -3 -24 -8 7 -5 37 -4 67 1 68 13 126 -3 168 -44 l29 -29 20 25
c11 14 24 25 30 25 6 0 5 -7 -3 -17 -10 -11 -10 -14 -1 -9 17 10 15 -10 -4
-39 -14 -22 -14 -29 -2 -67 l14 -42 13 75 c14 82 8 112 -26 123 -27 9 -67 75
-69 112 -2 28 1 33 17 31 24 -4 76 -53 95 -89 8 -15 14 -51 14 -80 0 -30 4
-48 9 -42 15 17 41 108 32 113 -5 3 -16 23 -25 44 -28 68 14 140 61 104 9 -6
11 -22 7 -48 -8 -47 11 -54 20 -7 3 17 11 37 17 44 13 16 39 7 39 -13 0 -8 4
-12 9 -9 13 8 41 -4 41 -17 0 -6 -12 -21 -27 -34 l-28 -23 23 -6 c13 -4 21
-12 19 -18 -5 -16 -48 -36 -79 -36 -27 0 -39 -22 -19 -35 6 -3 -16 -40 -48
-83 -71 -94 -84 -119 -74 -135 4 -7 33 -45 63 -85 37 -49 56 -68 58 -57 6 26
69 9 109 -28 21 -20 45 -33 64 -34 16 -1 36 -7 44 -13 10 -8 15 -9 15 -2 0 6
-4 14 -10 17 -5 3 -10 11 -10 17 0 6 11 3 25 -6 25 -17 26 -17 19 9 -3 14 -3
32 0 41 9 22 36 0 36 -30 0 -17 -2 -19 -11 -6 -7 10 -9 11 -7 2 6 -23 23 -18
26 8 5 32 20 50 42 50 17 0 35 -25 32 -42 -1 -5 2 -8 7 -8 5 0 13 -10 16 -22
6 -16 1 -26 -16 -39 -20 -15 -21 -19 -6 -19 9 0 17 -7 17 -15 0 -8 8 -15 18
-15 13 0 10 -6 -13 -25 -16 -14 -38 -23 -48 -21 -13 3 -17 0 -13 -11 3 -8 9
-33 12 -55 l7 -40 14 33 c8 18 19 36 25 40 15 10 50 -2 43 -15 -3 -6 -8 -19
-11 -28 -3 -9 -19 -22 -35 -28 -31 -13 -33 -18 -20 -38 7 -11 9 -11 14 2 4 9
18 16 32 16 22 0 26 -4 24 -22 -2 -13 0 -29 4 -35 5 -9 -1 -17 -17 -25 -37
-16 -32 -24 14 -20 l41 4 -6 -53 c-3 -30 -12 -59 -20 -65 -13 -10 -13 -15 1
-43 21 -42 11 -77 -29 -98 -30 -16 -30 -18 -9 -21 12 -2 26 -11 31 -20 10 -20
-4 -66 -18 -58 -5 3 -12 -1 -15 -10 -3 -8 -10 -12 -16 -9 -6 4 -4 17 5 36 9
16 13 34 10 39 -9 15 -59 12 -81 -6 -18 -15 -18 -15 3 -5 12 6 32 11 45 11 19
-1 17 -3 -12 -16 -19 -8 -36 -16 -38 -18 -1 -2 6 -20 18 -41 l21 -38 -22 -23
c-21 -23 -21 -24 -3 -30 34 -11 64 -27 64 -35 0 -4 -19 -9 -42 -11 l-43 -3 3
-41 c2 -30 -2 -45 -17 -58 -19 -17 -20 -17 -34 10 -10 19 -16 23 -22 14 -4 -7
-2 -16 6 -21 8 -5 13 -24 12 -48 -1 -23 0 -41 2 -41 2 0 25 18 50 40 50 44 75
53 125 48 25 -2 34 -8 36 -25 5 -28 -14 -38 -96 -53 -104 -18 -110 -21 -70
-34 38 -13 53 -11 30 5 -11 7 2 9 42 6 37 -2 65 -10 78 -22 26 -23 26 -55 1
-55 -17 0 -19 -5 -14 -35 3 -22 2 -35 -5 -35 -25 0 -85 46 -113 87 -35 50 -45
50 -115 3 -29 -21 -43 -39 -50 -66 -9 -40 -32 -58 -88 -69 -21 -5 -26 -9 -17
-15 8 -4 30 -3 50 4 27 9 41 23 56 54 40 82 115 136 98 71 -4 -14 -1 -18 10
-13 9 3 30 -5 50 -20 19 -14 40 -26 48 -26 23 -1 71 -49 65 -66 -4 -9 3 -18
19 -24 15 -6 25 -17 25 -29 0 -11 5 -23 11 -26 11 -8 3 -62 -13 -82 -5 -7 -7
-17 -3 -24 5 -6 -12 -30 -39 -56 -48 -46 -55 -64 -17 -43 23 12 30 -3 9 -17
-7 -4 -13 -15 -13 -23 0 -20 -45 -41 -76 -34 -17 3 -44 -3 -74 -18 -43 -21
-45 -23 -23 -29 12 -4 41 -7 64 -8 50 -1 139 -54 130 -77 -3 -9 -6 -19 -6 -24
0 -4 -8 -11 -17 -14 -20 -8 -110 50 -119 76 -8 25 -89 46 -143 36 -24 -4 -63
-10 -88 -12 -49 -5 -70 -15 -32 -17 13 0 67 -2 119 -4 56 -2 96 -8 98 -14 2
-6 10 -11 18 -11 16 0 19 -26 3 -35 -6 -4 -13 2 -16 13 -3 14 -16 21 -46 25
-23 4 -58 9 -77 12 -28 5 -23 1 23 -18 72 -31 87 -44 87 -73 0 -23 -31 -64
-49 -64 -5 0 -11 -10 -14 -23 -3 -12 -9 -33 -13 -46 -5 -17 -4 -22 4 -17 7 4
12 15 12 25 0 26 49 69 59 53 5 -9 17 -11 36 -6 21 5 31 2 42 -11 9 -13 13
-14 13 -5 0 7 -7 21 -16 31 -13 14 -20 16 -40 7 -13 -6 -27 -8 -30 -5 -12 12
7 57 31 73 37 24 72 11 92 -34 8 -20 19 -44 24 -53 4 -10 3 -21 -3 -27 -8 -8
-4 -14 14 -21 30 -11 44 -41 26 -53 -7 -4 -25 -8 -40 -8 -15 0 -30 -4 -33 -10
-3 -5 -21 -10 -40 -10 -38 0 -96 20 -78 27 10 4 10 7 0 18 -7 7 -15 11 -19 8
-5 -2 -8 1 -8 6 0 6 4 11 9 11 5 0 11 7 14 14 4 10 1 13 -8 10 -18 -7 -27 -36
-19 -60 6 -16 5 -17 -7 -6 -7 6 -21 12 -31 12 -23 0 -31 19 -37 93 -1 4 -5 7
-11 7 -5 0 -7 -7 -4 -15 4 -10 0 -15 -14 -15 -20 0 -20 -1 3 -26 25 -26 24
-54 -2 -54 -8 0 -11 -5 -7 -11 4 -8 9 -8 17 0 18 18 34 12 33 -11 -2 -33 -34
-88 -51 -88 -26 0 -16 35 16 59 39 29 31 39 -11 14 -30 -17 -32 -17 -44 -1
-12 16 -14 16 -24 -8 -17 -35 -15 -49 3 -34 17 14 36 5 28 -15 -3 -8 -1 -15 5
-15 5 0 12 -10 15 -22 6 -21 7 -21 27 -3 11 10 20 26 20 35 0 10 13 32 29 48
21 23 25 34 17 43 -6 7 -3 7 8 -1 10 -8 26 -15 34 -15 8 0 17 -6 19 -12 3 -7
0 -13 -6 -13 -6 0 0 -23 15 -51 14 -28 28 -49 30 -46 3 2 -4 21 -16 42 -27 48
-14 66 39 59 27 -4 41 -1 50 10 20 24 47 19 75 -15 29 -34 34 -67 11 -75 -8
-4 -15 -14 -15 -24 0 -25 -17 -35 -35 -20 -8 7 -20 8 -27 4 -7 -5 -21 -7 -30
-6 -9 2 -19 -6 -23 -18 -7 -21 -43 -42 -57 -33 -15 8 -8 35 7 29 8 -3 15 -1
15 3 0 5 -7 11 -15 15 -8 3 -15 13 -15 23 0 29 -26 94 -41 104 -20 12 -31 11
-26 -3 2 -7 -4 -30 -14 -50 -24 -48 -24 -70 1 -93 20 -18 20 -18 5 18 -14 34
-14 40 0 67 29 56 58 26 59 -63 1 -34 6 -65 11 -69 6 -5 3 -8 -6 -8 -9 0 -22
-6 -28 -13 -6 -8 -23 -12 -40 -9 -33 5 -84 52 -63 59 6 3 10 9 6 14 -8 14 -40
11 -54 -6 -7 -8 -22 -15 -34 -15 -11 -1 -31 -6 -44 -13 l-23 -13 25 -12 c15
-6 26 -19 26 -27 0 -9 16 -38 35 -67 42 -61 53 -97 34 -109 -8 -5 -22 -7 -31
-5 -26 6 -22 0 15 -21 34 -21 45 -56 25 -80 -6 -7 -29 -14 -52 -15 -37 -1 -38
-2 -8 -5 17 -2 32 -8 32 -12 0 -17 -84 -73 -150 -102 -90 -38 -236 -52 -263
-25 -16 16 -18 16 -39 -6 -21 -22 -31 -24 -118 -23 -52 1 -111 5 -131 9 -22 5
-45 4 -57 -3 -15 -8 -21 -8 -24 0 -3 9 -27 9 -83 3 -44 -4 -70 -9 -58 -12 30
-5 18 -32 -14 -32 -13 0 -34 5 -45 11 -16 9 -33 7 -73 -6 l-52 -18 4 -51 c5
-72 7 -86 11 -81 3 2 14 -2 24 -10 16 -10 26 -11 44 -3 32 15 30 34 -3 33 -37
0 -61 46 -43 80 14 26 38 33 95 25 44 -6 89 10 98 35 9 21 40 19 62 -5 10 -11
13 -20 7 -20 -7 0 -12 6 -12 13 -1 7 -6 5 -14 -5 -7 -10 -20 -18 -28 -18 -19
0 -68 -38 -68 -51 0 -6 12 -1 26 10 15 12 37 21 50 21 33 0 73 20 68 35 -3 8
4 10 24 7 16 -2 43 3 60 12 30 15 31 15 51 -10 12 -15 21 -33 21 -41 0 -8 4
-11 10 -8 5 3 10 16 10 28 0 30 35 44 85 35 48 -9 245 -12 253 -4 3 3 -39 7
-94 8 -95 1 -93 2 41 8 130 6 145 8 210 38 74 35 136 87 162 136 38 73 1 240
-62 282 -22 15 -24 19 -11 26 25 14 74 -18 107 -70 41 -64 54 -117 40 -161 -8
-28 -7 -40 4 -57 13 -21 11 -25 -39 -72 -74 -70 -137 -108 -231 -139 -69 -22
-98 -26 -210 -27 -71 -1 -146 2 -166 7 -29 6 -38 4 -43 -8 -3 -9 -2 -13 4 -10
6 3 10 -3 10 -13 0 -22 27 -37 33 -19 2 8 46 12 148 13 83 1 163 7 189 15 25
7 50 13 56 15 46 9 153 74 211 128 l68 64 -3 98 c-3 85 -7 108 -32 159 l-29
60 32 3 c18 2 46 14 64 28 17 13 34 24 37 24 3 0 22 12 43 26 25 17 47 24 66
21 22 -3 34 4 57 30 33 37 38 73 17 113 -8 15 -11 35 -7 45 5 13 -1 37 -17 66
-31 60 -41 119 -21 119 21 0 48 33 48 58 0 12 -19 36 -46 60 l-47 40 32 16
c32 17 54 55 53 89 0 9 10 29 23 42 25 28 37 67 39 136 1 35 -6 55 -27 86
l-28 41 23 66 c22 63 22 68 6 96 -14 24 -14 31 -2 47 21 28 17 70 -8 87 -25
18 -85 21 -108 6 -9 -6 -17 -5 -21 2 -12 18 2 46 26 52 31 8 42 42 21 65 -23
25 -21 81 2 81 34 0 63 43 62 91 -1 39 5 95 25 240 5 35 3 50 -9 62 -9 8 -16
28 -16 44 -1 15 -7 39 -14 52 -10 17 -11 34 -5 55 8 25 6 34 -8 46 -17 14 -21
40 -22 132 0 47 -25 96 -56 110 l-24 11 19 27 c11 15 17 30 14 33 -3 3 0 21 6
39 11 30 10 37 -12 70 -39 57 -83 97 -130 118 -44 20 -128 27 -128 11 0 -10
48 -25 69 -22 33 6 121 -49 114 -71 -2 -5 3 -8 10 -8 13 0 67 -63 67 -79 0 -5
-9 -13 -20 -16 -24 -8 -26 -21 -4 -33 25 -14 7 -32 -31 -32 -24 0 -38 -6 -45
-20 -6 -11 -20 -25 -32 -31 -18 -10 -25 -8 -41 12 -17 20 -19 21 -12 4 15 -38
17 -63 6 -69 -6 -4 -11 -4 -11 1 0 4 -9 23 -21 42 l-20 34 -20 -32 c-20 -33
-39 -34 -39 -3 0 10 7 28 16 40 12 18 19 20 36 11 18 -10 19 -8 13 13 -4 12
-15 29 -26 37 -10 7 -19 19 -19 26 0 7 -9 15 -21 18 -16 4 -18 3 -8 -9 6 -8 8
-14 3 -14 -5 -1 6 -9 24 -19 l33 -17 -45 -42 c-25 -23 -52 -42 -61 -42 -18 0
-20 36 -3 46 7 5 4 10 -11 16 -14 5 -20 12 -15 20 6 10 3 9 -9 0 -21 -18 -43
-6 -26 14 9 11 7 14 -15 14 -29 0 -35 20 -11 40 10 8 33 11 67 8 49 -5 50 -5
25 9 -15 7 -27 20 -27 27 0 7 -7 19 -15 26 -23 19 -13 34 21 35 18 0 29 5 30
15 2 30 4 32 18 21 19 -16 58 3 50 24 -4 8 -11 12 -17 8 -6 -3 -24 -7 -39 -8
-40 -2 -33 26 8 37 44 11 56 30 60 96 4 56 3 57 -31 80 -19 12 -45 22 -57 22
-12 0 -37 6 -56 12 -32 12 -35 11 -63 -20 -16 -18 -29 -39 -29 -47 0 -19 -9
-19 -55 1 -27 11 -41 12 -48 5 -19 -19 -37 -12 -37 13 0 14 -9 31 -19 38 -10
7 -26 31 -35 52 -16 39 -22 45 -86 91 -118 83 -399 42 -400 -59 -1 -53 -29
-55 -88 -4 -41 35 -49 35 -89 -2 -37 -35 -73 -40 -73 -10 0 32 -21 67 -49 81
-39 19 -112 38 -149 39 -20 0 -31 4 -27 10 7 11 2 13 -9 3z m1068 -377 c25
-33 33 -56 20 -56 -3 0 -35 14 -71 31 -60 29 -63 32 -49 48 9 10 16 21 16 26
0 4 10 16 22 27 l23 20 6 -31 c4 -17 18 -46 33 -65z m-1323 28 c26 -31 19 -48
-27 -70 -53 -25 -65 -15 -30 27 14 17 26 37 26 45 0 19 14 18 31 -2z m-391
-493 c0 -20 -36 -71 -51 -71 -16 0 -10 25 11 43 11 9 20 24 20 32 0 8 5 15 10
15 6 0 10 -8 10 -19z m-100 -130 c0 -20 -13 -41 -25 -41 -18 0 -26 25 -12 39
13 13 37 15 37 2z"/>
<path d="M1217 3791 c-10 -4 -18 -10 -17 -14 1 -4 -3 -21 -10 -36 -9 -23 -17
-29 -41 -27 -16 1 -29 -1 -29 -6 0 -4 -7 -4 -17 -1 -10 4 -14 2 -10 -4 4 -6 1
-14 -5 -17 -7 -3 -2 -3 11 0 16 4 21 3 17 -5 -10 -16 0 -14 48 12 25 13 41 28
38 36 -2 7 5 26 17 42 12 16 20 29 19 28 -2 0 -11 -4 -21 -8z"/>
<path d="M1024 3733 c34 -38 28 -43 -15 -12 -16 11 -29 18 -29 15 0 -2 14 -14
31 -27 44 -31 58 -10 17 27 l-33 29 29 -32z"/>
<path d="M1811 3714 c17 -21 94 -60 83 -42 -5 7 -8 22 -7 33 2 11 0 14 -3 7
-5 -10 -9 -9 -20 5 -12 16 -15 16 -25 3 -8 -11 -12 -12 -16 -2 -2 6 -9 12 -15
12 -6 0 -5 -7 3 -16z"/>
<path d="M1954 3715 c-13 -10 -14 -14 -5 -15 11 0 11 -3 1 -15 -15 -18 -13
-22 20 -28 14 -2 18 -2 10 1 -10 3 -5 9 15 18 29 14 26 14 -25 0 l-25 -7 21
18 c12 10 30 24 40 31 17 11 17 11 -3 2 -27 -13 -36 -13 -28 0 9 14 2 12 -21
-5z"/>
<path d="M1420 3637 c0 -4 9 -20 21 -36 11 -15 23 -46 26 -69 3 -22 14 -50 25
-61 20 -22 58 -29 58 -10 0 5 -4 7 -10 4 -5 -3 -10 1 -10 9 0 8 -5 18 -12 22
-7 5 -8 3 -3 -5 5 -9 2 -12 -11 -9 -14 2 -20 13 -21 38 -3 57 -20 103 -33 95
-5 -3 -13 3 -19 12 -6 10 -11 14 -11 10z"/>
<path d="M1685 3600 c-3 -5 -12 -7 -20 -3 -8 3 -15 0 -15 -6 0 -6 -9 -11 -19
-11 -10 0 -21 -7 -25 -15 -6 -16 -2 -18 32 -9 12 4 22 13 22 21 0 10 5 11 19
4 13 -8 23 -6 37 5 18 14 17 14 -5 3 -21 -10 -23 -9 -18 5 7 17 2 22 -8 6z"/>
<path d="M1326 3591 c-8 -13 26 -31 58 -31 18 0 26 5 25 18 0 10 -3 12 -6 5
-3 -9 -10 -10 -24 -3 -10 6 -19 8 -19 4 0 -3 -6 -1 -14 5 -9 8 -16 8 -20 2z"/>
<path d="M1720 3563 c-8 -3 -31 -20 -50 -38 -19 -18 -44 -35 -55 -37 -14 -3
-9 -7 18 -12 20 -5 37 -12 37 -16 0 -4 12 -5 27 -2 24 4 24 6 9 17 -15 12 -14
15 11 34 l28 22 -40 -21 c-22 -11 -44 -20 -49 -20 -16 0 28 41 64 61 33 17 33
24 0 12z"/>
<path d="M1873 3548 c0 -7 -3 -33 -6 -58 l-7 -45 15 50 c17 59 18 65 7 65 -5
0 -9 -6 -9 -12z"/>
<path d="M1386 3536 c6 -13 74 -49 74 -38 0 4 -18 17 -39 28 -22 12 -37 16
-35 10z"/>
<path d="M1907 3532 c2 -10 -5 -39 -16 -66 -28 -63 -26 -68 6 -23 16 22 32 36
40 32 8 -3 11 0 8 6 -4 6 2 13 14 16 19 5 19 7 4 29 -19 29 -64 34 -56 6z"/>
<path d="M1554 3528 c-5 -7 -9 -20 -9 -28 -1 -14 3 -14 34 2 45 23 60 38 39
38 -8 0 -21 -7 -28 -15 -7 -8 -16 -15 -21 -15 -5 0 -6 7 -3 15 7 18 -2 20 -12
3z"/>
<path d="M1339 3517 c20 -25 8 -31 -28 -13 -43 23 -51 20 -16 -5 l30 -21 -35
5 c-35 6 -35 6 9 -14 39 -17 47 -18 85 -5 22 8 33 15 24 16 -9 0 -31 12 -50
27 -18 15 -27 20 -19 10z"/>
<path d="M673 3430 c18 -44 33 -74 35 -66 3 14 -53 146 -61 146 -3 0 9 -36 26
-80z"/>
<path d="M2034 3468 c-5 -7 -3 -8 6 -3 32 20 0 -22 -36 -47 -36 -25 -111 -37
-98 -16 14 23 -8 4 -28 -24 l-23 -32 35 21 c28 17 40 19 60 11 14 -6 39 -12
55 -14 17 -2 37 -12 45 -22 9 -10 21 -17 28 -14 16 5 74 -37 66 -49 -3 -5 -2
-9 3 -8 30 5 55 -2 50 -15 -3 -8 2 -16 15 -19 11 -3 17 -10 14 -15 -3 -6 18
-34 47 -63 29 -30 74 -80 100 -112 26 -32 47 -51 47 -42 0 12 6 15 21 10 20
-7 20 -6 6 22 -25 46 -78 115 -85 109 -3 -3 3 -13 14 -21 10 -8 15 -15 10 -15
-6 0 -1 -7 10 -15 19 -14 18 -14 -3 -15 -13 0 -23 5 -23 10 0 14 -37 50 -44
43 -3 -4 -6 -1 -6 6 0 6 9 15 20 19 18 7 15 12 -30 59 -27 28 -65 56 -85 63
-25 8 -34 15 -27 22 7 7 20 5 41 -5 28 -14 30 -14 22 1 -14 25 -62 68 -96 85
-16 8 -48 34 -70 56 -42 44 -50 48 -61 29z m73 -72 c21 -18 48 -38 61 -45 24
-13 30 -31 8 -31 -7 0 -46 15 -85 33 -70 32 -71 32 -56 55 21 29 28 28 72 -12z"/>
<path d="M921 3457 c-6 -8 -8 -16 -5 -20 13 -13 -10 -49 -44 -66 -20 -11 -53
-33 -72 -50 l-35 -30 34 9 c35 10 51 6 51 -11 0 -5 -14 -9 -31 -9 -39 0 -90
-24 -120 -57 l-24 -25 23 6 c20 7 22 4 22 -27 0 -29 -3 -34 -22 -34 -34 0 -60
-13 -86 -45 -13 -15 -27 -26 -30 -24 -4 2 -7 -7 -7 -20 0 -27 7 -30 24 -10 9
11 9 15 -1 20 -7 3 -4 4 7 3 12 -1 19 3 17 11 -1 6 2 11 7 10 4 -2 18 8 30 22
17 19 20 20 13 5 -11 -22 -38 -51 -98 -105 -27 -25 -44 -52 -56 -91 -22 -67
-22 -83 -3 -49 13 23 22 14 15 -15 -2 -5 -4 -28 -6 -50 -2 -33 -1 -36 7 -17 5
13 7 28 3 33 -3 5 -1 9 4 9 5 0 9 6 9 13 0 6 4 21 8 32 5 14 4 16 -3 7 -7 -11
-10 -11 -15 2 -9 22 64 124 166 232 147 159 221 224 245 217 10 -2 24 3 31 11
8 9 23 16 34 16 11 0 28 7 37 15 13 11 24 13 50 5 32 -9 33 -9 17 7 -11 11
-30 16 -52 15 -27 -2 -42 5 -73 33 -43 38 -54 42 -71 22z m59 -52 c16 -19 5
-32 -38 -44 -25 -8 -32 -7 -32 5 0 8 4 14 9 14 5 0 11 9 14 20 6 24 30 26 47
5z"/>
<path d="M1410 3430 c-26 -4 -35 -8 -20 -9 25 -2 25 -2 5 -17 -11 -8 -19 -20
-17 -26 2 -6 -4 -8 -13 -5 -8 4 -25 2 -37 -4 -23 -10 -23 -10 1 -5 18 4 21 2
12 -7 -22 -22 -10 -27 19 -7 81 55 85 56 138 54 29 -1 56 -4 59 -7 2 -3 15 -4
27 -1 16 3 37 -8 68 -35 27 -25 45 -34 45 -25 0 19 -93 78 -108 68 -8 -5 -9
-3 -4 6 5 9 23 10 59 6 31 -4 45 -3 36 3 -23 13 -130 21 -130 10 0 -6 -8 -9
-17 -7 -10 1 -23 -1 -29 -5 -7 -4 -17 0 -24 8 -7 8 -15 14 -19 13 -3 0 -26 -4
-51 -8z"/>
<path d="M1728 3335 c2 -19 7 -35 11 -35 4 0 6 14 3 30 -3 25 -1 29 12 24 9
-3 16 -1 16 5 0 6 -10 11 -23 11 -20 0 -23 -4 -19 -35z"/>
<path d="M1875 3341 c-11 -10 -4 -17 18 -19 15 -1 24 4 24 13 0 12 -32 17 -42
6z"/>
<path d="M1123 3314 c-29 -32 -29 -34 2 -34 14 0 25 -3 25 -7 -1 -22 -13 -53
-22 -53 -5 0 -6 5 -3 10 3 6 0 10 -8 10 -9 0 -13 -8 -10 -23 4 -18 -4 -26 -42
-45 -50 -24 -91 -30 -79 -10 4 7 3 8 -5 4 -6 -4 -9 -12 -6 -17 10 -15 48 -10
85 10 19 10 38 18 42 17 4 0 16 7 28 16 21 18 29 11 9 -9 -8 -8 -8 -13 0 -17
6 -4 11 -1 12 6 1 7 3 32 5 56 2 23 0 58 -4 77 l-7 34 -22 -25z"/>
<path d="M1803 3257 c-2 -91 13 -87 23 5 4 39 2 57 -8 65 -11 9 -13 -3 -15
-70z"/>
<path d="M2520 3335 c0 -6 7 -21 16 -33 9 -13 13 -26 10 -29 -9 -9 48 -41 86
-48 18 -3 51 -2 73 4 l40 10 -40 0 c-67 -1 -69 -1 -56 15 8 10 9 16 1 21 -6 4
-9 1 -8 -5 2 -7 -7 -16 -20 -21 -20 -8 -23 -6 -17 11 4 11 2 20 -4 20 -6 0
-11 -4 -11 -10 0 -22 -20 -7 -44 33 -14 23 -26 37 -26 32z"/>
<path d="M1949 3312 c5 -10 17 -24 25 -32 24 -19 21 12 -2 33 -24 22 -35 21
-23 -1z"/>
<path d="M1266 3303 c-8 -19 4 -157 12 -149 3 3 6 42 7 86 2 76 -5 100 -19 63z"/>
<path d="M450 3290 c-6 -11 -17 -20 -25 -20 -7 0 -15 -6 -18 -12 -3 -9 -15 -3
-37 17 -18 17 -30 25 -26 18 3 -6 1 -14 -4 -16 -6 -3 -5 -4 2 -3 12 3 38 -17
38 -28 0 -3 -21 -6 -47 -7 -44 -1 -46 -1 -18 -10 38 -11 102 -1 109 17 3 8 13
14 21 14 9 0 13 -4 10 -10 -9 -15 8 -12 31 5 18 14 18 14 -9 15 -25 0 -27 2
-17 20 6 11 8 20 6 20 -3 0 -10 -9 -16 -20z"/>
<path d="M1180 3248 c0 -52 2 -59 13 -45 13 19 11 107 -4 107 -5 0 -9 -28 -9
-62z"/>
<path d="M1856 3294 c-3 -9 -6 -17 -6 -18 0 -1 17 0 37 2 34 4 35 6 18 18 -25
18 -41 18 -49 -2z"/>
<path d="M2017 3292 c10 -7 17 -17 16 -22 -1 -4 3 -10 10 -13 7 -3 12 6 13 23
1 23 -3 27 -28 26 -26 -1 -27 -2 -11 -14z"/>
<path d="M1022 3266 c-47 -34 -49 -38 -14 -25 18 6 35 15 38 20 3 5 10 7 15 4
5 -3 6 1 3 9 -3 9 -7 16 -8 16 0 -1 -16 -11 -34 -24z"/>
<path d="M1573 3271 c-11 -17 -9 -21 7 -26 27 -8 26 -54 0 -88 -28 -36 -72
-43 -117 -20 -34 18 -41 29 -46 80 -2 23 -17 21 -17 -2 0 -8 -12 -18 -26 -21
-24 -6 -26 -10 -20 -48 4 -22 12 -45 18 -51 7 -7 8 -3 4 12 -6 17 -2 22 16 26
20 4 20 4 -4 6 -18 0 -28 7 -28 16 0 22 26 18 47 -7 10 -13 27 -24 38 -26 55
-7 115 -9 115 -3 0 9 82 51 99 51 6 0 11 -16 11 -37 0 -30 -3 -35 -11 -23 -8
12 -9 11 -5 -5 9 -31 -42 -45 -164 -45 -74 0 -106 -4 -114 -13 -6 -8 -42 -24
-80 -36 -78 -25 -176 -22 -176 5 0 8 6 14 14 14 16 0 28 37 15 46 -5 3 -9 2
-8 -3 4 -21 -2 -33 -17 -33 -9 0 -57 -21 -107 -47 -161 -83 -303 -247 -369
-426 -26 -71 -31 -100 -36 -209 -2 -71 -7 -128 -11 -128 -7 0 -55 74 -88 134
-28 52 -30 80 -3 46 l20 -25 0 23 c0 13 7 37 16 54 l16 31 -43 -25 c-37 -22
-44 -31 -47 -62 -2 -27 3 -42 21 -60 14 -14 22 -27 19 -30 -3 -3 0 -6 7 -6 7
0 10 -4 7 -8 -2 -4 0 -14 6 -22 8 -12 9 -12 4 3 -10 31 2 18 25 -28 22 -44 22
-45 3 -60 -10 -8 -14 -15 -8 -15 6 0 17 7 24 16 20 23 139 90 198 110 52 19
61 27 42 39 -18 11 -10 43 16 64 15 11 30 19 34 16 4 -3 13 8 20 24 6 16 20
37 31 47 10 9 19 23 19 30 0 7 -27 36 -59 64 -60 52 -91 105 -91 155 0 22 4
25 39 25 21 0 84 -9 138 -20 58 -11 130 -19 171 -17 68 2 71 3 74 27 2 18 18
34 58 58 70 42 89 39 116 -18 l22 -45 -31 -33 c-25 -26 -29 -35 -18 -41 10 -7
20 3 37 34 l23 44 -25 52 c-16 32 -23 61 -20 75 7 27 123 154 140 154 17 0
104 -139 136 -219 15 -36 34 -82 43 -103 l15 -36 45 16 45 16 -34 39 c-19 21
-32 42 -29 47 8 12 -31 23 -57 15 -22 -7 -22 -6 -6 10 15 16 21 17 64 5 54
-15 104 -54 104 -80 0 -17 9 -18 78 -18 42 1 95 7 116 15 54 18 216 30 216 15
0 -40 -49 -133 -96 -182 -50 -53 -52 -56 -34 -68 13 -8 20 -23 20 -45 0 -29 5
-35 35 -46 47 -17 59 -41 41 -85 -8 -18 -19 -37 -25 -40 -14 -9 -14 -17 4 -40
12 -15 17 -17 29 -7 12 10 31 10 85 2 90 -14 119 -26 157 -62 18 -17 34 -26
38 -21 3 5 -3 12 -14 15 -30 8 -35 34 -14 79 10 22 20 35 22 29 3 -8 9 -6 18
6 22 29 17 -6 -6 -44 -11 -18 -15 -33 -10 -33 10 0 43 59 61 108 9 27 9 27 -8
6 -10 -11 -28 -19 -41 -18 -18 1 -28 -7 -39 -31 -8 -17 -23 -37 -34 -43 -17
-11 -18 -6 -17 121 1 113 -2 141 -21 196 -32 91 -63 149 -120 224 -27 36 -48
68 -45 71 2 3 1 4 -2 1 -4 -2 -38 22 -76 54 -38 33 -102 76 -143 96 l-74 38
-62 -23 c-67 -24 -127 -24 -184 0 -16 7 -37 14 -45 14 -20 1 -26 36 -6 36 9 0
16 -5 16 -12 0 -6 2 -9 5 -6 3 3 31 -1 63 -9 91 -23 112 -26 112 -15 0 6 -17
12 -37 14 -36 3 -48 18 -22 27 6 2 9 0 6 -5 -3 -5 6 -10 19 -10 28 -2 38 22
31 82 -4 39 -4 38 -5 -7 -2 -44 -20 -68 -41 -55 -4 3 -23 1 -42 -3 -19 -4 -43
-4 -54 0 -20 8 -20 8 0 9 11 2 27 2 35 1 12 -2 12 0 2 7 -11 7 -12 25 -6 78 7
59 9 65 15 39 6 -20 6 -13 3 20 -9 80 -20 73 -27 -17 -6 -87 -13 -118 -28
-118 -8 0 -12 39 -13 102 0 13 -4 14 -22 8 -19 -8 -24 -5 -30 13 -4 12 -11 25
-16 28 -5 3 -10 16 -11 27 -2 27 -9 28 -24 3z m-142 -259 c-6 -9 -24 -33 -41
-52 -17 -19 -36 -45 -41 -58 -5 -12 -17 -25 -26 -28 -42 -13 -86 -40 -122 -76
-36 -35 -44 -38 -95 -38 -30 0 -65 4 -78 9 -13 5 -42 11 -65 15 -24 3 -62 9
-85 12 -24 3 -45 8 -47 10 -10 10 99 108 165 150 79 49 86 51 140 28 42 -18
135 -15 170 5 33 19 119 49 127 44 4 -2 3 -12 -2 -21z m190 14 c15 -7 56 -23
93 -36 70 -23 91 -22 176 8 57 19 79 14 161 -42 109 -73 176 -133 163 -146 -5
-4 -31 -11 -59 -14 -54 -7 -83 -12 -130 -22 -16 -4 -58 -9 -92 -11 -58 -4 -63
-3 -79 22 -25 39 -94 75 -141 75 -41 0 -42 1 -92 82 -59 95 -59 115 0 84z
m692 -333 c33 -54 65 -132 81 -201 13 -58 14 -191 1 -212 -5 -7 -28 -9 -73 -4
-37 4 -73 7 -80 7 -9 0 -11 9 -6 31 14 62 7 90 -30 121 -63 54 -64 84 -6 151
15 17 37 57 50 88 13 31 27 56 32 56 4 0 18 -17 31 -37z m-1532 -15 c7 -18 37
-59 67 -90 63 -66 63 -75 -3 -139 -25 -24 -50 -59 -56 -77 -9 -27 -22 -39 -63
-57 -100 -44 -96 -45 -96 27 0 64 16 174 28 193 4 6 7 12 7 15 5 40 73 160 90
160 7 0 19 -15 26 -32z"/>
<path d="M1300 3265 c0 -9 7 -18 16 -22 9 -3 20 -15 24 -27 7 -17 9 -18 9 -3
1 20 -27 67 -40 67 -5 0 -9 -7 -9 -15z"/>
<path d="M1854 3220 c0 -24 5 -41 14 -45 10 -3 12 0 8 10 -3 8 -1 15 3 15 5 0
4 14 -2 30 -16 41 -23 38 -23 -10z"/>
<path d="M926 3219 c-33 -33 -48 -36 -70 -13 -14 13 -16 13 -16 1 0 -8 7 -18
16 -21 8 -3 12 -11 9 -17 -8 -11 59 21 87 43 10 7 14 18 10 25 -5 8 -16 2 -36
-18z"/>
<path d="M1993 3237 c2 -7 20 -15 41 -18 20 -3 46 -15 59 -26 12 -10 42 -32
67 -47 l45 -29 -34 37 c-19 20 -42 36 -50 36 -8 0 -24 8 -35 18 -27 24 -99 46
-93 29z"/>
<path d="M430 3218 c0 -7 12 -21 26 -32 l26 -18 -16 31 c-17 31 -36 42 -36 19z"/>
<path d="M1901 3204 c-1 -27 32 -75 45 -66 2 1 5 2 7 1 1 0 22 -2 47 -4 l45
-3 -48 18 c-27 10 -54 23 -61 29 -7 6 -16 8 -20 4 -4 -4 -4 0 -1 9 4 10 16 20
27 24 11 3 17 8 15 11 -3 2 -14 0 -25 -6 -15 -8 -22 -8 -25 2 -3 6 -6 -2 -6
-19z"/>
<path d="M956 3192 c-60 -24 -83 -41 -181 -137 -61 -60 -84 -84 -50 -52 60 57
95 77 59 35 l-19 -23 22 19 c12 10 21 23 20 28 -1 6 4 13 12 16 9 3 11 0 6 -8
-5 -9 -4 -11 4 -6 6 4 9 11 6 16 -6 10 63 60 82 60 7 0 13 6 13 13 1 16 76 51
96 43 8 -3 12 -10 9 -16 -4 -6 1 -7 10 -3 12 4 13 8 5 13 -7 4 -15 12 -19 18
-4 6 -31 1 -75 -16z"/>
<path d="M1986 3199 c3 -5 9 -7 13 -5 13 8 72 -34 65 -46 -4 -7 -3 -8 4 -4 6
4 29 -3 52 -14 44 -22 53 -35 18 -25 -18 5 -20 4 -8 -4 8 -6 22 -8 31 -6 8 3
24 -2 35 -11 18 -14 18 -15 -6 -4 -23 10 -24 10 -7 -4 11 -8 26 -12 35 -9 11
5 13 3 7 -7 -5 -8 -4 -11 2 -7 10 6 101 -78 164 -151 33 -39 36 -46 16 -43 -5
1 -6 -3 -2 -9 3 -6 11 -8 16 -5 5 4 21 -7 36 -22 l26 -28 -19 34 c-29 52 -212
253 -224 246 -4 -3 -13 2 -20 10 -6 7 -35 28 -63 46 -29 18 -62 41 -74 52 -22
20 -109 34 -97 16z"/>
<path d="M1291 3168 c-1 -9 -4 -25 -7 -35 -4 -12 -3 -14 3 -5 7 9 13 2 21 -25
10 -33 10 -40 -5 -50 -21 -16 -15 -16 26 -2 30 11 41 32 21 44 -5 3 -10 1 -10
-6 0 -22 -14 1 -32 49 -9 26 -17 39 -17 30z"/>
<path d="M1090 3151 c0 -9 -102 -54 -135 -58 -30 -5 -75 -24 -75 -33 0 -4 16
-4 36 0 25 6 34 5 31 -3 -2 -7 -11 -12 -20 -12 -8 0 -19 -3 -23 -7 -3 -4 -15
-3 -25 2 -13 8 -28 2 -66 -28 -53 -43 -138 -134 -155 -166 -5 -12 15 6 46 39
30 33 55 56 55 50 0 -5 -27 -39 -60 -75 -34 -36 -58 -59 -53 -51 5 9 3 12 -4
7 -7 -4 -12 -13 -12 -20 0 -7 -11 -25 -25 -40 -14 -15 -25 -31 -25 -37 0 -5
-7 -26 -16 -47 -19 -43 -25 -73 -11 -65 5 3 7 -4 3 -16 -3 -11 -8 -29 -11 -38
-2 -10 -1 -24 4 -32 7 -11 14 -7 30 20 12 19 19 40 16 47 -3 8 0 10 7 6 8 -5
9 -2 5 10 -4 10 -7 23 -8 29 0 7 -7 -10 -15 -37 -23 -74 -24 -51 -3 53 22 107
29 123 27 60 -1 -24 1 -59 4 -78 4 -24 -2 -50 -22 -95 -32 -69 -46 -126 -32
-126 5 0 12 18 16 41 4 22 20 70 36 105 16 36 25 62 20 59 -14 -8 -12 0 5 42
19 44 19 54 0 29 -28 -37 -27 -7 1 44 17 30 74 97 136 158 59 58 104 110 101
115 -4 6 0 8 11 4 10 -4 15 -3 11 3 -6 10 8 14 34 10 8 -1 20 4 25 12 6 7 22
19 36 26 l25 12 -27 -5 c-44 -9 -33 2 42 40 39 19 70 31 70 26 0 -5 -10 -13
-21 -16 -15 -5 -18 -10 -9 -15 8 -5 7 -9 -5 -14 -24 -9 -27 -8 -19 6 4 7 3 8
-5 4 -6 -4 -9 -11 -6 -16 3 -5 -5 -16 -17 -25 -23 -15 -22 -15 12 -10 60 9 94
21 98 33 2 8 -8 7 -38 -3 -22 -8 -38 -10 -35 -5 3 5 21 14 40 20 35 12 44 23
25 35 -5 3 -7 12 -3 20 3 9 -1 15 -11 15 -9 0 -16 -4 -16 -9z m-224 -134 c-11
-7 -36 -27 -56 -44 -40 -35 -62 -44 -39 -16 20 23 90 73 103 72 6 0 2 -6 -8
-12z m3 -20 c-2 -1 -38 -34 -78 -72 -61 -57 -69 -62 -42 -28 34 45 99 103 115
103 5 0 7 -1 5 -3z"/>
<path d="M1851 3113 c0 -27 3 -42 6 -35 2 6 12 12 20 12 11 0 13 4 6 13 -6 6
-13 21 -17 31 -5 16 -4 17 9 6 13 -11 14 -10 9 4 -3 9 -12 16 -20 16 -10 0
-14 -13 -13 -47z"/>
<path d="M1174 3083 c1 -58 3 -63 23 -63 12 0 25 5 28 10 3 6 16 10 28 10 14
0 26 10 34 25 11 24 10 25 -25 21 -21 -2 -45 -7 -54 -11 -16 -6 -17 -3 -13 26
4 28 3 30 -4 9 l-8 -25 -5 30 c-3 17 -4 2 -4 -32z m72 -22 c-11 -12 -25 -17
-38 -13 -19 5 -18 6 8 18 41 18 50 17 30 -5z"/>
<path d="M1603 3123 c4 -3 0 -15 -10 -25 -16 -18 -8 -25 13 -10 20 13 25 42 7
42 -9 0 -13 -3 -10 -7z"/>
<path d="M1958 3110 c31 -13 28 -22 -4 -14 -21 5 -25 4 -19 -6 5 -9 4 -11 -3
-6 -14 8 -52 -10 -52 -26 0 -7 4 -7 14 1 8 7 25 9 42 5 21 -6 25 -4 18 7 -6
10 0 8 19 -3 30 -21 41 -23 31 -7 -4 8 0 8 15 0 11 -7 21 -16 21 -20 0 -5 9
-11 21 -14 17 -5 16 -2 -8 21 -46 45 -86 72 -102 71 -10 0 -7 -4 7 -9z"/>
<path d="M729 3072 c-19 -20 -42 -46 -50 -56 -13 -18 -13 -18 6 -8 32 17 98
89 88 95 -6 4 -25 -11 -44 -31z"/>
<path d="M2041 3079 c33 -29 66 -45 76 -35 3 3 -6 8 -21 12 -14 3 -24 10 -21
14 9 14 96 -30 148 -73 26 -22 45 -42 43 -45 -3 -3 -13 1 -23 9 -14 12 -16 12
-8 0 6 -10 4 -12 -4 -7 -7 5 -10 10 -7 13 9 10 -93 73 -109 67 -22 -9 -18 -26
5 -19 20 7 92 -57 190 -170 24 -27 40 -41 37 -30 -7 20 -7 20 8 1 18 -23 20
-40 4 -30 -7 4 -7 -2 1 -17 18 -35 23 -38 16 -9 l-7 25 18 -21 c10 -12 24 -30
31 -40 11 -17 11 -14 6 16 -28 149 -207 321 -374 359 l-42 9 33 -29z m298
-197 c57 -71 69 -99 16 -37 -19 22 -38 40 -42 40 -5 0 -23 14 -41 30 -33 31
-33 31 -8 30 18 0 38 -17 75 -63z"/>
<path d="M2440 3101 c0 -24 42 -104 74 -139 45 -49 47 -66 4 -26 l-33 29 29
-32 c16 -18 32 -30 37 -28 4 3 33 -31 66 -76 83 -115 86 -119 62 -69 -12 25
-28 53 -37 62 -13 16 -13 18 3 24 12 5 24 0 36 -14 14 -18 18 -19 23 -7 3 8 1
15 -4 15 -4 0 -12 14 -15 32 -6 24 -3 35 10 44 14 11 15 14 4 18 -8 2 -34 10
-58 18 -25 7 -47 19 -49 27 -5 14 11 13 65 -5 13 -4 11 0 -7 15 -14 11 -37 23
-52 26 -33 8 -78 42 -78 59 0 14 -41 36 -65 36 -8 0 -15 -4 -15 -9z m96 -89
c11 -9 28 -30 38 -45 10 -16 31 -33 47 -39 23 -8 29 -16 27 -32 -4 -26 -27
-27 -42 -2 -15 27 -37 56 -61 80 -50 51 -56 77 -9 38z"/>
<path d="M250 3040 c-6 -11 -21 -20 -33 -21 -21 0 -21 -1 3 -10 19 -8 27 -6
37 7 13 17 18 44 8 44 -2 0 -9 -9 -15 -20z"/>
<path d="M2730 3033 c0 -22 2 -23 15 -9 22 22 23 29 3 32 -13 2 -18 -5 -18
-23z"/>
<path d="M280 3035 c0 -6 5 -16 10 -21 15 -15 1 -76 -17 -70 -9 4 -11 2 -7 -6
5 -8 2 -9 -9 -5 -14 5 -17 0 -17 -23 l0 -30 34 37 c34 39 60 123 37 123 -6 0
-11 -6 -11 -12 0 -9 -4 -8 -10 2 -5 8 -10 10 -10 5z"/>
<path d="M2666 3024 c-3 -8 -11 -12 -17 -8 -8 4 -9 3 -5 -4 4 -6 12 -9 19 -6
7 2 18 -8 24 -23 7 -16 17 -35 22 -43 5 -8 12 -24 16 -34 3 -10 8 -16 11 -13
9 8 -18 87 -27 81 -5 -3 -9 11 -9 30 0 38 -22 51 -34 20z"/>
<path d="M1520 2941 c0 -6 5 -13 11 -17 6 -4 38 -48 70 -98 33 -50 59 -87 59
-82 0 11 -128 206 -135 206 -3 0 -5 -4 -5 -9z"/>
<path d="M452 2883 c-41 -63 -63 -121 -43 -108 15 9 85 145 78 151 -2 3 -18
-17 -35 -43z"/>
<path d="M634 2904 c-11 -16 -20 -21 -24 -14 -5 8 -9 7 -13 -4 -4 -9 -3 -15 1
-15 20 3 16 -7 -29 -83 -27 -44 -49 -86 -49 -92 0 -6 11 8 24 31 13 23 38 62
56 87 17 26 33 56 35 67 2 12 9 27 16 35 6 8 9 14 5 14 -3 0 -13 -12 -22 -26z"/>
<path d="M1468 2852 c-21 -32 -38 -63 -38 -69 0 -7 17 -4 44 5 37 14 53 14 88
5 23 -6 44 -10 46 -9 3 4 -91 125 -98 125 -3 1 -22 -25 -42 -57z"/>
<path d="M2508 2884 c6 -3 12 -15 12 -25 0 -11 -4 -17 -10 -14 -5 3 -10 4 -10
0 0 -3 12 -10 26 -15 16 -6 24 -16 22 -27 -1 -10 2 -24 6 -32 7 -11 5 -13 -7
-8 -10 3 -17 2 -17 -2 0 -13 32 -23 42 -13 5 5 2 14 -6 21 -8 7 -13 18 -10 26
3 7 -2 27 -10 44 -9 17 -16 34 -16 38 1 5 -7 9 -17 10 -10 2 -12 0 -5 -3z"/>
<path d="M196 2865 c8 -20 -13 -45 -37 -45 -17 0 -16 -2 4 -22 l22 -23 8 27
c4 15 11 29 16 33 11 6 2 45 -10 45 -5 0 -6 -7 -3 -15z"/>
<path d="M2755 2820 c16 -30 22 -106 6 -82 -7 11 -9 10 -15 -3 -8 -21 -26 -10
-26 16 0 12 7 19 20 19 24 0 25 9 6 35 -11 16 -17 17 -29 7 -12 -11 -12 -23
-1 -95 8 -45 14 -98 14 -117 l0 -35 19 30 c15 25 16 31 4 38 -8 5 -11 18 -9
33 3 14 1 22 -5 19 -15 -10 -10 22 6 35 8 7 15 9 15 5 0 -5 9 0 20 10 19 17
19 18 -6 66 -13 27 -27 49 -29 49 -3 0 1 -13 10 -30z"/>
<path d="M706 2758 c-31 -46 -56 -87 -56 -92 0 -6 14 12 31 40 17 27 45 64 62
82 17 17 27 32 21 33 -5 0 0 4 11 9 15 6 16 9 4 9 -9 1 -40 -34 -73 -81z"/>
<path d="M217 2823 c-11 -10 -8 -73 3 -73 6 0 10 17 8 40 -1 22 -3 40 -3 40
-1 0 -5 -3 -8 -7z"/>
<path d="M1315 2820 c-11 -5 -16 -9 -12 -9 18 -2 -16 -41 -36 -41 -16 0 -19
-3 -8 -9 11 -7 9 -12 -10 -22 -23 -12 -22 -13 30 -30 51 -18 55 -18 67 -1 35
46 39 62 22 90 -19 31 -26 34 -53 22z"/>
<path d="M495 2770 c-4 -23 -4 -44 -1 -47 3 -3 -1 -17 -8 -32 -18 -34 -55
-206 -63 -290 -3 -36 -9 -76 -14 -89 -5 -13 -9 -31 -9 -40 1 -15 2 -15 11 1
14 23 30 120 30 168 -1 20 16 79 39 134 44 108 51 138 15 60 -29 -62 -32 -39
-4 34 11 30 18 60 15 68 -3 8 -1 11 4 8 6 -4 7 7 3 27 -8 45 -10 45 -18 -2z"/>
<path d="M2295 2800 c-3 -6 1 -13 9 -16 9 -3 26 -24 38 -45 12 -21 23 -37 25
-35 4 4 -56 106 -62 106 -2 0 -7 -5 -10 -10z"/>
<path d="M417 2754 c-10 -14 -23 -21 -30 -18 -7 4 -9 4 -5 -1 4 -4 -8 -30 -28
-56 -36 -50 -60 -109 -43 -109 5 0 9 9 9 21 0 11 15 35 33 52 19 18 36 40 40
50 3 9 11 17 17 17 5 0 10 7 10 16 0 10 6 14 14 11 11 -4 13 -1 9 10 -4 10 -2
14 4 10 6 -4 13 0 17 8 9 25 -27 17 -47 -11z"/>
<path d="M1457 2758 l-29 -10 32 -33 c21 -21 38 -31 49 -28 19 7 81 64 81 75
0 11 -99 8 -133 -4z"/>
<path d="M2510 2760 c1 -8 14 -42 29 -75 17 -35 28 -51 28 -37 -1 12 -5 22 -9
22 -4 0 -8 6 -8 13 0 7 -9 30 -20 52 -11 22 -20 33 -20 25z"/>
<path d="M2434 2745 c2 -11 10 -43 16 -72 6 -29 9 -56 6 -61 -3 -5 1 -29 8
-53 22 -73 31 -20 13 74 -9 44 -13 85 -10 91 3 6 2 7 -2 3 -5 -4 -15 3 -22 15
-12 20 -13 20 -9 3z"/>
<path d="M2626 2751 c-4 -5 -1 -13 5 -17 6 -3 24 -27 40 -52 32 -50 39 -50 13
1 -25 47 -52 79 -58 68z"/>
<path d="M1581 2704 c-17 -25 -31 -54 -31 -66 0 -14 -5 -18 -15 -14 -18 7 -20
-15 -3 -32 19 -19 24 -15 53 34 15 25 40 53 56 63 l29 18 -23 21 c-13 12 -26
22 -29 22 -4 0 -20 -20 -37 -46z"/>
<path d="M2566 2731 c-3 -5 6 -12 20 -15 13 -4 29 -17 34 -29 5 -12 9 -16 9
-9 1 8 6 10 14 6 7 -5 7 -1 -2 10 -20 24 -69 48 -75 37z"/>
<path d="M2384 2715 c2 -11 7 -33 11 -49 5 -23 8 -27 16 -15 13 21 11 34 -12
60 -18 22 -20 22 -15 4z"/>
<path d="M850 2705 c-18 -22 -9 -27 54 -29 54 -1 63 8 23 23 -54 20 -64 21
-77 6z"/>
<path d="M1407 2690 c-10 -17 -14 -30 -9 -30 4 0 27 -16 49 -35 35 -29 42 -32
47 -18 4 10 -4 27 -22 47 -16 17 -34 39 -39 48 -8 16 -11 14 -26 -12z"/>
<path d="M2103 2685 c-43 -20 -75 -30 -79 -24 -3 6 -11 4 -17 -6 -7 -8 -39
-26 -72 -40 l-60 -24 -1 -45 -1 -46 24 35 c12 18 23 39 23 44 0 15 10 14 29
-2 9 -8 31 -20 49 -27 42 -17 55 -2 47 53 -6 40 8 50 25 18 16 -31 12 -66 -15
-128 -14 -31 -23 -63 -20 -71 3 -9 0 -12 -9 -9 -9 4 -13 -2 -13 -16 0 -16 12
-28 44 -43 l44 -22 10 25 c12 33 11 37 -6 23 -13 -11 -15 -8 -15 15 0 20 4 26
16 21 12 -5 15 2 12 37 -2 35 -7 43 -25 45 -24 4 -30 16 -13 27 6 3 10 16 10
29 0 12 22 51 50 87 72 92 70 94 -37 44z"/>
<path d="M1058 2691 c-31 -10 -60 -16 -63 -13 -3 3 -5 0 -5 -6 0 -8 -20 -12
-55 -12 -30 0 -55 -3 -55 -7 1 -5 16 -25 34 -46 33 -36 34 -37 40 -15 8 32 54
80 74 76 24 -5 27 -28 2 -28 -22 0 -45 -40 -57 -102 -5 -27 -4 -29 13 -20 10
6 27 13 37 16 12 4 17 16 17 43 0 37 0 37 16 15 8 -12 12 -27 9 -32 -9 -15 7
-12 29 5 11 8 34 15 52 15 74 0 32 31 -56 42 -17 2 -26 10 -28 25 -3 21 0 22
30 17 18 -4 48 -13 66 -20 31 -12 32 -12 32 11 0 13 3 30 6 39 9 22 -63 21
-138 -3z"/>
<path d="M1850 2702 c0 -6 -7 -9 -15 -5 -14 5 -14 2 -3 -22 11 -24 13 -25 19
-8 6 15 9 12 14 -14 8 -34 23 -41 42 -22 7 7 29 19 50 29 37 16 38 17 15 29
-32 17 -122 27 -122 13z"/>
<path d="M136 2683 c-8 -19 -11 -15 42 -42 23 -12 47 -19 51 -16 5 3 4 20 -1
39 -10 30 -13 33 -29 23 -15 -9 -24 -9 -38 0 -16 10 -20 9 -25 -4z"/>
<path d="M1249 2675 c30 -26 32 -49 4 -59 -11 -4 -13 -2 -9 9 8 21 -3 45 -20
45 -8 0 -14 -10 -14 -24 0 -20 10 -30 50 -50 l50 -25 1 27 c0 15 4 36 8 47 7
17 2 23 -33 37 -59 24 -72 22 -37 -7z"/>
<path d="M1753 2674 c-35 -15 -42 -37 -20 -63 14 -17 47 -99 47 -117 0 -24
-29 -8 -34 19 -8 40 -12 33 -20 -33 -7 -52 -6 -54 9 -32 9 12 23 22 31 22 19
0 18 -10 -3 -26 -12 -9 -14 -13 -5 -14 7 0 24 12 38 27 13 14 27 23 31 19 4
-4 1 -11 -7 -16 -18 -11 -6 -25 15 -16 13 5 15 19 13 73 -3 73 -10 79 -63 58
-16 -6 -15 -3 7 20 24 25 29 27 44 14 19 -15 18 -13 -11 44 -21 41 -25 42 -72
21z"/>
<path d="M398 2658 c-2 -13 -9 -22 -16 -20 -8 1 -11 -2 -7 -8 3 -5 2 -10 -4
-10 -6 0 -13 -11 -17 -25 -3 -13 -12 -29 -20 -36 -8 -6 -14 -17 -14 -23 0 -6
4 -5 9 3 11 18 20 -19 25 -111 3 -38 7 -72 10 -76 3 -5 1 -24 -3 -43 -5 -19
-11 -54 -14 -79 -5 -43 -5 -44 8 -20 8 14 14 42 15 62 0 20 5 38 11 40 7 2 7
12 0 31 -6 16 -11 38 -11 49 0 17 2 19 16 7 11 -9 9 -1 -6 23 -18 32 -20 42
-11 96 10 62 22 94 48 124 8 9 12 22 8 27 -10 18 -23 12 -27 -11z"/>
<path d="M1638 2663 c-30 -36 -28 -43 6 -22 20 12 36 25 36 30 0 15 -26 10
-42 -8z"/>
<path d="M1331 2615 c-6 -25 -9 -50 -6 -56 12 -18 23 -9 28 24 3 17 7 41 9 51
2 10 -2 21 -8 23 -7 2 -16 -16 -23 -42z"/>
<path d="M2620 2648 c0 -14 19 -74 33 -105 6 -13 10 -36 10 -53 0 -36 13 -30
22 9 4 19 0 41 -9 59 -9 17 -12 32 -7 34 5 2 -4 18 -20 36 -16 18 -29 27 -29
20z"/>
<path d="M1380 2621 c-16 -30 -12 -41 14 -41 13 0 35 -9 49 -20 20 -16 26 -17
30 -6 4 9 -11 29 -38 51 -42 34 -45 35 -55 16z"/>
<path d="M1666 2625 c-12 -9 -17 -22 -13 -34 3 -11 1 -21 -5 -23 -5 -2 -10
-13 -11 -26 0 -12 -5 -22 -9 -22 -4 0 -8 -7 -8 -16 0 -9 -9 -18 -20 -21 -21
-6 -19 -23 3 -19 6 1 31 15 55 30 38 26 42 32 41 70 0 22 -3 49 -7 58 -6 14
-9 15 -26 3z"/>
<path d="M2417 2615 c3 -11 18 -55 32 -97 14 -43 28 -78 32 -78 12 0 -7 63
-40 130 -17 36 -28 56 -24 45z"/>
<path d="M2551 2616 c-1 -5 8 -23 18 -40 20 -31 37 -98 33 -126 -2 -13 -1 -13
7 1 12 19 -17 142 -31 133 -6 -4 -8 3 -3 17 4 17 3 20 -3 10 -8 -11 -10 -11
-15 0 -3 8 -6 10 -6 5z"/>
<path d="M1609 2600 c-41 -24 -71 -81 -75 -142 -3 -45 -1 -59 8 -56 7 3 13 16
13 31 1 14 -3 23 -9 20 -14 -9 3 50 18 62 7 6 11 17 9 25 -3 11 -1 11 10 -2
14 -18 18 -12 55 65 5 10 -10 8 -29 -3z"/>
<path d="M1210 2561 c0 -24 4 -28 19 -24 11 3 28 0 38 -6 15 -9 14 -10 -13
-11 -34 0 -44 -13 -44 -56 0 -28 18 -31 60 -9 56 29 51 84 -10 115 -50 25 -50
25 -50 -9z"/>
<path d="M1500 2566 c0 -7 6 -19 14 -25 11 -9 15 -8 20 5 4 10 1 21 -6 26 -19
12 -28 10 -28 -6z"/>
<path d="M2756 2564 c-18 -18 -39 -64 -33 -71 2 -2 25 8 50 23 26 14 47 21 47
15 0 -6 7 -11 16 -11 28 0 11 -35 -19 -38 -29 -4 -35 6 -14 27 10 10 9 11 -4
6 -19 -7 -81 -90 -73 -98 8 -8 116 41 138 63 16 16 17 23 7 47 -9 23 -18 28
-47 29 -20 0 -39 6 -43 13 -6 10 -12 8 -25 -5z"/>
<path d="M1134 2556 c-19 -14 -19 -15 5 -40 33 -35 41 -33 41 14 0 43 -12 50
-46 26z"/>
<path d="M1360 2552 c0 -10 20 -34 44 -54 l44 -37 4 29 c4 24 1 30 -14 30 -10
0 -18 7 -18 15 0 14 -29 35 -49 35 -6 0 -11 -8 -11 -18z"/>
<path d="M298 2512 c2 -20 9 -42 14 -49 5 -7 6 -18 2 -25 -5 -10 -4 -10 5 -2
10 9 10 21 0 55 -16 58 -26 68 -21 21z"/>
<path d="M1478 2520 c-3 -16 -1 -30 3 -30 4 0 5 -19 2 -42 -3 -24 -2 -40 2
-36 5 5 10 20 11 35 2 16 6 40 9 54 4 16 1 29 -8 37 -12 10 -15 7 -19 -18z"/>
<path d="M1071 2526 c-10 -12 -8 -29 10 -86 23 -73 30 -80 55 -55 9 8 24 15
35 15 10 0 19 4 19 9 0 19 -20 21 -55 7 -35 -15 -45 -10 -23 12 7 7 25 12 41
12 22 0 28 4 25 18 -2 11 -12 16 -25 15 -14 -2 -24 4 -28 16 -3 10 -14 26 -24
35 -16 14 -20 15 -30 2z"/>
<path d="M1916 2518 c-11 -16 -13 -25 -4 -35 8 -10 7 -13 -5 -13 -8 0 -21 -7
-28 -17 -13 -15 -11 -16 15 -9 20 5 32 3 37 -6 15 -23 10 -26 -30 -21 -32 4
-39 2 -43 -14 -5 -18 -1 -19 46 -15 58 5 76 21 76 68 0 74 -33 106 -64 62z"/>
<path d="M2001 2488 l1 -43 13 30 c18 39 18 55 0 55 -11 0 -15 -11 -14 -42z"/>
<path d="M1357 2490 c3 -12 0 -20 -7 -20 -9 0 -8 -6 4 -19 10 -10 14 -21 9
-22 -4 -2 3 -15 16 -29 l23 -25 -7 25 c-4 14 -8 38 -7 55 1 29 -13 55 -28 55
-5 0 -6 -9 -3 -20z"/>
<path d="M1679 2481 c-13 -18 -29 -29 -36 -27 -8 4 -13 -3 -13 -17 0 -37 -20
-98 -31 -92 -5 4 -6 18 -3 32 6 22 2 20 -35 -18 -37 -39 -49 -59 -36 -59 2 0
16 12 30 28 25 26 26 27 41 7 8 -11 12 -26 9 -34 -4 -10 -2 -11 7 -4 7 5 21
13 31 16 16 6 16 4 -3 -23 -12 -17 -25 -30 -29 -30 -15 0 -29 23 -24 39 4 14
3 14 -6 1 -9 -12 -11 -13 -11 -1 0 8 -3 11 -7 8 -3 -4 3 -18 16 -30 22 -25 20
-57 -4 -57 -22 0 -36 25 -22 40 10 12 9 12 -4 2 -14 -10 -20 -10 -33 3 -15 15
-16 15 -16 -2 -1 -16 -3 -15 -20 6 -14 16 -17 27 -10 36 5 6 7 15 3 18 -3 4
-2 7 4 7 6 0 14 -8 17 -17 6 -15 8 -15 16 -3 12 18 9 79 -3 87 -6 4 -7 -9 -3
-30 6 -32 5 -36 -11 -30 -10 3 -24 13 -30 21 -7 9 -13 11 -13 6 0 -6 3 -14 7
-18 9 -9 13 -36 5 -36 -12 0 -33 40 -27 50 3 5 0 12 -6 16 -9 5 -10 -2 -6 -25
6 -30 5 -32 -16 -25 -12 3 -25 12 -29 19 -4 6 -16 23 -27 36 -32 38 -24 3 9
-43 32 -44 38 -68 16 -68 -21 0 -99 37 -131 61 l-28 22 12 -22 c7 -12 22 -26
34 -31 12 -4 43 -17 69 -27 27 -10 48 -24 48 -30 0 -8 12 -13 28 -13 27 1 27
1 7 18 -23 19 -22 62 2 62 8 0 29 -16 46 -35 17 -20 40 -35 53 -35 12 0 27 -7
34 -15 17 -20 37 -19 51 4 15 22 49 16 49 -9 0 -12 -14 -21 -45 -30 -24 -7
-50 -19 -56 -26 -6 -8 -19 -14 -28 -15 -10 0 -11 -2 -4 -6 7 -2 29 5 49 17 19
13 48 23 63 25 15 1 33 5 40 10 8 4 17 2 22 -6 6 -10 9 -11 9 -1 0 6 7 12 16
12 8 0 13 -4 9 -9 -3 -5 8 -18 25 -27 41 -25 38 -37 -10 -32 -50 4 -53 -7 -4
-16 22 -5 41 -3 50 5 13 11 18 6 15 -14 -1 -5 3 -6 8 -3 5 3 14 -1 21 -9 7 -8
18 -15 24 -15 15 1 -83 88 -109 97 -16 5 -11 9 25 20 l45 13 -43 -4 c-38 -4
-42 -2 -30 12 12 14 10 14 -9 3 -13 -6 -23 -8 -23 -4 0 14 40 34 52 27 6 -4 8
-3 4 4 -3 6 -2 13 4 17 5 3 15 16 21 28 9 17 9 20 -1 10 -7 -6 -20 -9 -29 -6
-11 3 -12 2 -4 -4 16 -12 7 -23 -49 -61 l-48 -31 0 24 c0 19 -5 25 -22 25 -18
0 -20 2 -8 9 8 6 19 7 25 4 5 -4 7 -3 3 2 -9 10 6 38 45 88 29 35 31 36 48 21
17 -16 19 -15 29 11 6 15 8 30 5 33 -11 11 -87 -33 -101 -59 -7 -15 -23 -31
-35 -34 -24 -8 -34 -1 -23 16 4 7 8 26 10 43 1 17 12 38 25 49 22 18 23 18 29
1 5 -12 9 -3 13 26 3 25 4 46 2 48 -2 2 -14 -10 -26 -27z"/>
<path d="M2490 2508 c1 -1 7 -25 14 -53 8 -30 10 -61 5 -77 -4 -16 -6 -28 -5
-28 2 0 16 18 30 41 15 22 30 38 33 36 3 -3 -9 -26 -27 -51 -30 -45 -29 -64 2
-28 26 30 39 62 33 82 -5 15 -86 91 -85 78z"/>
<path d="M970 2485 c0 -8 7 -32 15 -51 8 -20 13 -39 10 -43 -10 -18 31 -6 46
13 14 17 15 25 4 56 -10 29 -17 36 -43 38 -24 2 -32 -1 -32 -13z"/>
<path d="M920 2464 c-13 -33 -13 -54 2 -108 12 -44 12 -45 39 -30 l27 14 -19
50 c-10 28 -19 61 -19 75 0 33 -18 32 -30 -1z"/>
<path d="M1413 2457 c8 -16 18 -28 22 -27 4 1 12 -4 16 -12 5 -7 9 -8 9 -2 0
5 -14 23 -31 40 l-30 29 14 -28z"/>
<path d="M1293 2455 c-21 -11 -21 -11 8 -22 22 -8 29 -8 29 0 0 25 -14 34 -37
22z"/>
<path d="M127 2401 c-20 -24 -24 -39 -22 -85 1 -38 7 -62 20 -77 19 -20 19
-21 -9 -73 -24 -45 -27 -56 -16 -75 10 -20 9 -26 -9 -45 -12 -12 -21 -29 -21
-38 0 -23 36 -51 78 -57 44 -7 48 -27 11 -50 -139 -85 -163 -125 -91 -158 26
-13 38 -26 40 -43 6 -38 21 -50 63 -50 30 0 42 6 59 30 31 43 46 38 64 -24 25
-84 22 -95 -16 -87 -38 8 -68 4 -68 -10 0 -5 15 -9 33 -9 42 0 93 -32 118 -74
12 -20 33 -39 52 -46 26 -8 29 -13 17 -20 -12 -8 -9 -10 12 -10 l27 0 -34 51
c-19 27 -50 69 -70 91 -19 23 -35 51 -35 62 0 12 -7 30 -15 40 -8 11 -15 30
-15 41 0 12 -9 30 -20 40 -11 10 -22 26 -25 36 -10 29 -25 22 -25 -10 0 -38
-45 -93 -59 -72 -6 9 -11 10 -15 2 -12 -18 -26 -12 -26 11 0 22 45 107 58 109
4 0 17 2 29 3 32 4 41 16 12 16 -13 0 -46 -14 -74 -30 -49 -29 -98 -39 -109
-21 -3 5 10 23 29 40 28 24 45 31 78 32 41 0 42 0 20 16 -13 8 -23 19 -23 24
0 19 28 8 54 -22 15 -17 30 -29 32 -26 7 7 -7 37 -17 37 -17 0 -9 30 13 52
l21 21 -21 -5 c-48 -13 -12 21 60 55 33 16 45 26 39 36 -5 7 -12 11 -17 9 -5
-1 -10 8 -11 22 -2 18 -1 20 5 9 6 -14 9 -14 19 -4 9 10 8 14 -8 18 -13 4 -27
-2 -37 -13 -15 -18 -17 -18 -34 -3 -10 9 -18 25 -18 36 0 16 -3 17 -14 8 -11
-10 -16 -9 -24 5 -5 9 -15 14 -21 10 -7 -5 7 -23 38 -49 27 -23 45 -45 39 -48
-5 -4 -3 -9 7 -12 9 -4 13 -3 10 3 -8 12 5 13 24 1 10 -6 -3 -14 -42 -25 -100
-29 -110 -29 -140 -6 -26 21 -27 23 -10 34 10 7 36 13 58 15 21 1 41 3 42 5 2
1 -20 17 -47 35 -28 18 -48 37 -45 41 3 5 12 7 20 4 10 -4 12 0 8 15 -4 15 -1
21 11 21 9 0 16 7 16 15 0 9 7 18 15 21 14 6 13 8 -2 19 -17 13 -17 14 2 35
l20 22 -30 -6 c-16 -3 -36 -2 -44 3 -24 16 25 33 80 28 27 -3 49 -2 49 2 0 11
-15 26 -42 43 -14 10 -29 27 -33 38 -8 26 -19 25 -33 -2 -6 -14 -11 -17 -11
-8 -1 20 9 34 34 48 16 9 17 11 3 12 -9 0 -27 -13 -41 -29z"/>
<path d="M1210 2412 c0 -26 11 -37 56 -60 l42 -21 -11 23 c-6 13 -17 21 -24
19 -7 -3 -13 0 -13 6 0 6 11 11 24 11 33 0 43 18 14 24 -78 16 -88 16 -88 -2z"/>
<path d="M1814 2422 c-6 -4 -14 -20 -18 -36 -8 -32 -22 -49 -50 -59 -10 -4
-16 -10 -13 -13 12 -12 72 33 89 66 24 49 22 62 -8 42z"/>
<path d="M2609 2405 c-4 -46 2 -85 22 -157 9 -34 10 -60 3 -102 -10 -55 0 -80
12 -31 3 14 10 22 15 19 9 -5 3 43 -12 90 -5 16 -9 46 -9 67 0 22 -4 39 -10
39 -5 0 -7 6 -4 13 2 7 0 31 -5 52 -9 38 -9 39 -12 10z"/>
<path d="M299 2397 c6 -16 11 -58 12 -95 l0 -67 14 43 c11 37 11 48 -4 87 -9
24 -20 48 -24 52 -5 4 -3 -5 2 -20z"/>
<path d="M2476 2378 c9 -59 14 -60 14 -5 0 26 -5 47 -10 47 -6 0 -8 -16 -4
-42z"/>
<path d="M845 2396 c-18 -13 -18 -14 3 -48 26 -41 50 -64 59 -54 7 7 -28 116
-37 116 -3 0 -15 -6 -25 -14z"/>
<path d="M2139 2363 c-17 -40 -18 -49 -6 -60 12 -12 19 -9 46 22 25 28 29 40
21 54 -20 38 -40 33 -61 -16z"/>
<path d="M1035 2380 c-10 -11 -22 -17 -26 -14 -5 3 -9 0 -9 -7 0 -8 12 -9 38
-4 44 8 44 8 36 29 -8 21 -17 20 -39 -4z"/>
<path d="M1868 2363 c-9 -2 -18 -14 -20 -26 -2 -12 -7 -20 -11 -17 -8 5 -36
-36 -37 -53 0 -5 14 0 30 10 17 9 30 21 30 25 0 4 7 8 15 8 27 0 16 -18 -26
-43 -31 -19 -37 -26 -24 -31 9 -3 25 -2 35 4 16 9 90 110 90 124 0 7 -56 6
-82 -1z"/>
<path d="M1973 2364 c3 -3 -2 -14 -11 -24 -9 -10 -25 -32 -35 -48 l-17 -30 34
10 c23 7 36 18 38 32 2 11 13 26 25 32 l23 11 -25 11 c-28 13 -42 15 -32 6z"/>
<path d="M1026 2330 c-61 -24 -62 -24 -38 -48 18 -18 22 -19 33 -6 13 16 52
18 80 4 28 -16 24 -32 -5 -18 -20 8 -28 7 -41 -6 -9 -9 -24 -16 -33 -17 -11 0
-12 -2 -4 -6 6 -2 10 -8 7 -12 -5 -9 62 -91 76 -91 5 0 5 11 -1 25 -8 20 -5
29 14 50 13 14 28 25 35 25 18 0 13 15 -13 39 -14 13 -30 36 -36 52 -14 34
-11 33 -74 9z m77 -112 c-19 -22 -33 -23 -33 -4 0 14 14 23 38 23 8 0 7 -6 -5
-19z"/>
<path d="M1116 2338 c30 -51 70 -98 85 -98 25 0 49 11 49 22 0 8 -18 5 -58
-10 -12 -4 -12 -1 -1 16 7 12 19 18 28 14 11 -4 13 -1 7 14 -5 10 -11 27 -13
37 -4 13 -16 17 -55 17 -37 0 -47 -3 -42 -12z"/>
<path d="M480 2322 c6 -13 9 -30 6 -38 -3 -9 -1 -12 4 -9 6 3 10 1 10 -5 0
-13 -49 -33 -67 -26 -16 7 -16 -33 0 -88 11 -34 17 -40 44 -43 34 -4 52 12 33
30 -10 9 -14 9 -17 0 -8 -23 -20 -14 -31 26 -16 51 -14 65 2 21 13 -37 29 -43
34 -14 3 10 0 14 -7 10 -7 -4 -11 1 -11 14 0 20 1 20 25 4 28 -18 32 -9 10 20
-17 22 -20 40 -6 31 16 -9 -7 57 -25 75 -15 14 -15 13 -4 -8z"/>
<path d="M2010 2305 c-7 -8 -10 -19 -6 -22 9 -9 38 8 38 22 -1 16 -18 16 -32
0z"/>
<path d="M2065 2298 c-7 -17 -21 -24 -52 -29 -23 -3 -51 -13 -61 -22 -10 -9
-33 -17 -50 -17 -18 0 -32 -4 -32 -10 0 -5 6 -10 13 -10 7 0 28 -14 45 -31 32
-31 33 -32 53 -13 30 27 101 133 97 145 -2 5 -8 -1 -13 -13z m-35 -46 c0 -5
-11 -19 -25 -32 -22 -20 -25 -21 -31 -6 -3 9 -1 23 6 31 13 16 50 21 50 7z"/>
<path d="M842 2286 c3 -28 0 -30 -81 -57 -135 -46 -150 -72 -73 -132 26 -20
70 -55 97 -77 28 -22 56 -38 63 -35 8 3 28 -5 45 -17 41 -30 67 -43 110 -57
24 -8 37 -20 41 -37 l7 -25 18 23 c29 35 36 14 13 -39 -12 -28 -17 -49 -11
-52 6 -1 30 0 55 4 47 7 74 26 74 53 0 15 -2 15 -10 2 -8 -12 -10 -11 -10 8 0
16 -6 22 -23 22 -12 0 -32 7 -44 15 -12 8 -62 31 -111 49 -110 42 -147 65
-237 149 -62 57 -68 66 -56 81 19 23 56 20 74 -6 l16 -23 0 22 c1 12 17 42 36
68 34 43 35 47 20 68 -16 22 -16 22 -13 -7z"/>
<path d="M922 2277 c-13 -15 7 -37 82 -93 l39 -29 -29 41 c-17 25 -33 39 -39
34 -6 -5 -10 3 -10 23 0 35 -24 48 -43 24z"/>
<path d="M2072 2248 c-18 -23 -30 -43 -29 -45 2 -2 21 3 43 10 42 15 56 45 31
65 -10 9 -20 3 -45 -30z"/>
<path d="M1260 2269 c0 -5 10 -14 23 -19 12 -5 16 -9 8 -9 -11 -1 -10 -5 4
-21 17 -19 17 -20 0 -27 -18 -6 -18 -7 1 -14 11 -4 28 -1 42 7 22 14 22 14 16
-13 -9 -37 -14 -41 -54 -49 -33 -7 -34 -6 -20 12 9 12 4 11 -15 -6 -51 -42
-51 -43 -20 -36 87 20 136 39 127 48 -5 5 -7 21 -4 36 l6 27 7 -25 c7 -24 7
-24 8 -2 1 15 8 22 24 23 14 1 10 4 -13 9 -23 4 -43 2 -58 -7 -21 -13 -23 -12
-20 4 2 10 -2 17 -9 16 -15 -3 -18 14 -3 19 5 2 -4 11 -20 20 -17 9 -30 13
-30 7z"/>
<path d="M1420 2264 c9 -11 22 -32 30 -47 8 -16 16 -24 18 -19 2 6 -5 23 -15
38 -10 16 -17 31 -15 34 2 3 -5 7 -15 9 -16 3 -17 2 -3 -15z"/>
<path d="M270 2233 c0 -17 5 -35 11 -39 8 -4 7 -9 -2 -15 -11 -7 -10 -9 4 -9
9 0 17 -6 17 -14 0 -8 4 -17 10 -21 9 -6 -15 89 -31 115 -6 11 -8 6 -9 -17z"/>
<path d="M2525 2223 c-16 -24 -8 -32 12 -12 9 9 10 6 6 -12 -6 -24 -6 -24 15
-5 12 11 22 16 22 12 0 -15 -54 -102 -75 -121 -12 -11 -27 -39 -34 -62 -14
-51 -42 -73 -93 -73 -43 0 -44 -1 -22 -35 22 -33 37 -31 76 8 40 40 62 49 77
34 8 -8 11 -6 11 8 0 11 7 38 14 60 8 22 12 50 10 61 -3 12 -1 25 5 28 6 4 11
16 11 27 0 11 5 17 10 14 7 -4 6 -13 -1 -26 -6 -11 -8 -27 -5 -34 4 -13 -1
-36 -29 -135 -6 -18 -5 -22 3 -15 12 11 56 173 67 246 l7 47 -36 4 c-30 3 -39
0 -51 -19z"/>
<path d="M383 2208 c-1 -17 -10 -47 -20 -67 -19 -37 -19 -71 -2 -71 6 0 7 5 4
10 -10 17 17 11 38 -7 19 -17 20 -17 8 5 -6 12 -11 32 -10 45 4 45 -1 117 -8
117 -5 0 -9 -14 -10 -32z"/>
<path d="M877 2205 c-22 -46 -22 -114 0 -160 20 -41 22 -42 57 -14 l26 21 -25
30 c-29 34 -34 88 -10 108 14 12 14 15 -1 31 -23 26 -28 24 -47 -16z"/>
<path d="M1133 2200 c-18 -11 -33 -22 -33 -25 0 -3 11 2 25 11 25 17 25 17 16
-10 -12 -31 -6 -32 34 -6 17 11 37 20 45 20 13 0 13 -1 0 -10 -9 -6 -10 -10
-3 -10 26 0 22 20 -6 35 -38 19 -39 19 -78 -5z"/>
<path d="M2103 2197 c-18 -12 -33 -28 -33 -35 0 -7 -5 -10 -11 -7 -5 4 -18 0
-27 -7 -9 -8 -24 -19 -32 -23 -13 -8 -13 -7 -1 8 17 21 3 22 -23 2 -15 -11
-16 -15 -5 -17 30 -3 34 -4 46 -11 7 -4 10 -13 8 -20 -3 -7 4 -23 14 -37 16
-20 22 -22 35 -11 13 11 12 16 -9 39 -25 27 -33 62 -15 62 6 0 10 -6 10 -12 1
-7 11 -26 24 -42 l24 -28 31 46 c30 43 31 49 21 81 -13 41 -15 41 -57 12z"/>
<path d="M2235 2196 c8 -11 15 -36 15 -55 l0 -34 24 26 c27 29 67 43 93 33 14
-6 10 -13 -23 -47 -21 -22 -67 -61 -101 -87 -67 -49 -76 -64 -21 -36 95 49
217 152 204 172 -3 6 -34 13 -68 17 -35 4 -80 13 -100 20 -37 12 -37 12 -23
-9z"/>
<path d="M1896 2165 c22 -19 44 -35 49 -34 6 0 -7 15 -27 34 -21 19 -43 35
-49 35 -6 0 6 -16 27 -35z"/>
<path d="M1781 2176 c34 -32 103 -76 108 -68 3 5 12 11 20 13 24 8 -62 59 -99
59 -18 0 -31 -2 -29 -4z"/>
<path d="M520 2161 c0 -6 5 -13 10 -16 6 -4 8 -11 5 -16 -4 -5 5 -13 19 -19
17 -6 24 -14 20 -25 -7 -18 0 -19 26 -5 18 10 16 13 -23 50 -42 40 -57 48 -57
31z"/>
<path d="M1628 2157 c33 -15 26 -27 -10 -16 -17 5 -34 6 -37 4 -2 -3 1 -5 7
-5 7 0 11 -6 10 -12 -2 -8 8 -13 22 -14 41 -2 46 -4 31 -13 -11 -7 -9 -16 10
-51 13 -23 25 -37 27 -31 2 6 -4 18 -12 27 -26 26 -17 59 10 36 5 -5 21 -13
36 -20 26 -11 27 -10 17 12 -8 16 -17 22 -30 19 -23 -6 -49 13 -49 36 1 13 3
13 16 -4 9 -11 14 -13 10 -5 -3 8 -9 22 -12 31 -3 10 -17 16 -37 16 -29 0 -29
-1 -9 -10z"/>
<path d="M982 2145 c-7 -8 -22 -15 -32 -15 -25 0 -25 -12 -2 -33 30 -27 43
-24 56 15 17 47 6 64 -22 33z"/>
<path d="M1210 2149 c0 -5 -4 -7 -10 -4 -5 3 -10 1 -10 -5 0 -6 -3 -9 -7 -7
-5 3 -21 -1 -38 -8 l-30 -13 31 -1 c16 -1 34 -5 40 -10 5 -6 23 3 46 25 l38
34 -30 0 c-17 0 -30 -5 -30 -11z"/>
<path d="M2507 2149 c-9 -6 -26 -12 -37 -14 -19 -4 -80 -42 -80 -50 0 -1 7 -6
16 -9 8 -3 13 -2 10 3 -3 4 8 18 24 30 22 15 30 18 30 8 0 -8 -10 -19 -22 -25
-14 -6 -17 -11 -8 -11 20 -1 67 31 86 58 16 23 9 27 -19 10z"/>
<path d="M1063 2111 c4 -17 2 -19 -13 -11 -15 8 -20 6 -25 -11 -10 -29 -4 -31
45 -14 49 17 53 18 47 8 -3 -5 5 -16 18 -25 20 -15 25 -15 35 -3 9 11 0 20
-51 45 -57 29 -61 30 -56 11z"/>
<path d="M1423 2123 c4 -3 0 -14 -9 -24 -23 -25 -8 -43 16 -19 19 19 18 50 -3
50 -6 0 -7 -3 -4 -7z"/>
<path d="M1352 2100 c-7 -11 -26 -23 -42 -27 -17 -3 -30 -9 -30 -13 0 -4 20
-3 45 3 31 7 44 15 41 24 -3 7 -1 13 4 13 6 0 10 5 10 10 0 17 -14 11 -28 -10z"/>
<path d="M1553 2113 c3 -2 -4 -14 -15 -25 -15 -15 -22 -17 -28 -8 -5 7 -9 -2
-12 -23 -2 -20 0 -33 4 -31 4 3 8 12 8 20 0 15 21 15 32 -1 4 -5 8 2 8 17 0
31 13 43 28 25 15 -18 3 -69 -15 -63 -12 5 -14 -2 -9 -34 3 -24 1 -40 -5 -40
-6 0 -8 -4 -5 -9 3 -4 0 -22 -6 -39 -11 -29 -9 -35 26 -87 21 -30 40 -55 42
-55 6 0 94 112 94 121 0 5 -13 15 -29 24 l-29 15 -7 -40 c-7 -43 -24 -55 -26
-17 0 12 -3 16 -6 10 -10 -27 -25 -12 -19 20 4 23 3 28 -4 17 -5 -8 -10 -23
-10 -32 0 -10 -7 -18 -15 -18 -18 0 -18 -4 2 55 13 40 18 46 24 30 4 -11 8
-14 8 -7 1 7 -7 24 -16 38 -15 24 -15 27 -1 35 9 5 19 23 23 39 4 17 11 28 16
24 5 -3 7 -15 4 -27 -5 -20 -5 -20 5 -4 18 28 8 48 -33 62 -21 7 -36 11 -34 8z
m56 -296 c6 -8 8 -17 5 -20 -9 -8 -44 11 -44 23 0 15 26 12 39 -3z"/>
<path d="M1457 2088 c-13 -13 -22 -29 -19 -37 3 -8 0 -11 -6 -7 -6 3 -14 1
-18 -5 -4 -8 -3 -9 4 -5 8 5 12 -1 13 -16 0 -20 2 -18 12 9 7 17 22 43 34 57
28 32 13 34 -20 4z"/>
<path d="M1923 2098 c-15 -19 -27 -44 -18 -36 4 4 23 1 42 -7 19 -8 39 -13 43
-10 5 3 6 -4 3 -14 -4 -14 -11 -18 -26 -14 -43 10 -62 10 -84 0 -16 -7 -30 -7
-45 1 -25 12 -28 10 32 16 8 0 15 7 15 14 0 16 -1 16 -56 1 -43 -12 -45 -14
-35 -36 8 -17 19 -23 42 -23 17 0 46 -3 64 -7 29 -5 33 -4 26 12 -5 15 -4 16
9 5 12 -10 24 -11 55 -1 22 6 40 15 40 20 0 15 -56 57 -70 53 -12 -4 -13 -3
-2 10 10 13 10 17 -4 22 -21 8 -20 8 -31 -6z"/>
<path d="M630 2091 c0 -6 7 -14 16 -18 10 -4 14 -13 10 -29 -5 -17 -1 -24 14
-29 11 -4 18 -11 14 -16 -3 -6 10 -7 33 -3 31 5 44 1 63 -15 l25 -22 -55 4
c-30 2 -43 2 -28 0 16 -2 32 -13 38 -23 8 -15 6 -19 -13 -22 -12 -2 -22 -10
-22 -18 0 -12 -13 -15 -60 -13 -40 1 -53 -2 -40 -7 11 -5 30 -9 41 -9 23 -1
74 -36 74 -51 0 -10 -86 -7 -96 3 -18 18 -21 4 -6 -23 14 -25 14 -32 4 -39
-10 -6 2 -30 47 -99 60 -89 165 -196 248 -253 62 -43 203 -111 218 -105 7 2
35 -2 62 -10 77 -23 221 -44 308 -44 90 0 240 22 303 44 33 12 47 13 61 4 16
-9 34 -4 102 29 160 76 299 203 403 366 l37 57 -27 24 c-20 17 -25 28 -20 42
7 18 8 18 26 -3 11 -14 29 -23 45 -23 36 0 27 24 -9 27 -33 2 -69 31 -62 49 3
8 -9 5 -29 -7 -29 -18 -34 -18 -48 -5 -8 9 -18 21 -21 28 -3 9 -17 0 -39 -25
-55 -59 -55 -156 -3 -280 16 -37 16 -38 -9 -63 -18 -18 -33 -24 -48 -21 -12 3
-65 13 -117 22 -112 18 -200 36 -217 42 -7 3 -13 -1 -13 -8 0 -18 -75 -80 -98
-81 -9 0 -28 2 -42 6 -23 6 -27 3 -39 -29 -11 -33 -124 -185 -137 -185 -3 0
-18 7 -33 14 -57 30 -131 138 -131 191 0 20 5 25 25 25 21 0 35 -15 75 -76 28
-42 50 -82 50 -88 1 -6 7 3 15 21 7 17 32 60 55 94 27 41 35 59 23 54 -48 -21
-139 -16 -234 13 l-97 28 11 -23 c7 -16 19 -23 39 -23 17 0 27 -4 23 -10 -15
-25 -90 1 -90 32 0 7 -7 12 -15 11 -9 -2 -23 12 -33 30 l-18 32 -82 -6 c-106
-9 -140 -17 -206 -46 -66 -29 -81 -20 -81 46 0 47 31 131 48 131 5 0 15 -6 21
-14 7 -8 37 -26 68 -41 49 -25 57 -26 65 -12 5 10 15 14 26 10 13 -5 14 -3 6
6 -6 7 -19 13 -27 15 -9 1 -24 9 -34 18 -10 8 -44 32 -75 51 -42 27 -58 43
-58 59 0 20 4 19 43 -17 23 -22 9 -6 -30 34 -82 84 -93 104 -67 132 21 23 18
25 -81 86 -33 20 -68 43 -77 51 -12 10 -18 11 -18 3z m167 -233 c18 -20 63
-106 63 -120 0 -3 -11 -18 -25 -34 -14 -16 -28 -40 -31 -54 -3 -14 -7 -31 -10
-37 -8 -28 -34 -10 -79 56 -51 76 -53 106 -9 117 32 8 57 43 43 60 -12 15 -4
34 15 34 7 0 22 -10 33 -22z m1538 -28 c7 0 23 -20 35 -45 l22 -45 -26 -43
c-37 -61 -75 -100 -90 -94 -16 6 -46 100 -46 142 0 15 7 43 17 62 14 31 19 34
46 29 16 -3 35 -6 42 -6z m-1115 -330 c30 -27 64 -50 76 -50 25 0 44 -21 69
-75 9 -22 24 -48 32 -57 8 -9 12 -21 9 -26 -7 -11 -107 2 -165 23 -24 8 -57
15 -73 15 -58 0 -278 127 -278 160 0 25 119 57 215 59 59 1 62 0 115 -49z
m760 0 c41 -6 93 -13 115 -17 22 -3 42 -7 45 -10 9 -8 -17 -38 -56 -65 -82
-56 -147 -83 -204 -84 -30 -1 -91 -11 -135 -23 -77 -20 -145 -27 -145 -15 0 3
21 39 48 79 44 70 49 74 84 75 26 0 47 8 70 28 44 39 70 52 88 47 8 -3 49 -9
90 -15z m-446 -59 c3 -5 -1 -15 -10 -22 -13 -10 -17 -10 -25 2 -5 8 -9 17 -9
22 0 10 38 9 44 -2z"/>
<path d="M2140 2059 l-25 -20 25 7 c21 6 23 5 12 -8 -10 -13 -10 -17 3 -22 12
-4 15 2 15 29 0 19 -1 35 -2 35 -2 0 -14 -10 -28 -21z"/>
<path d="M2650 2050 c-7 -16 -16 -28 -20 -25 -4 3 -10 -4 -13 -15 -4 -16 -2
-17 14 -7 10 6 19 15 19 20 0 4 4 6 9 2 5 -3 13 0 17 6 5 8 3 9 -6 4 -10 -6
-11 -2 -6 19 9 35 1 33 -14 -4z"/>
<path d="M1061 2051 c-8 -5 -26 -7 -40 -5 -16 2 -2 -9 34 -26 33 -17 65 -30
71 -30 10 0 29 30 22 34 -2 1 -15 10 -30 19 -31 19 -37 20 -57 8z"/>
<path d="M2426 2048 c-19 -7 -24 -13 -16 -18 9 -6 3 -13 -19 -25 -18 -9 -30
-19 -27 -22 11 -11 63 19 85 48 23 31 21 33 -23 17z"/>
<path d="M2315 2020 c-58 -29 -57 -30 26 -14 14 3 31 14 37 25 16 26 7 24 -63
-11z"/>
<path d="M951 2016 c-18 -19 -19 -25 -8 -29 9 -3 19 4 26 20 16 34 9 38 -18 9z"/>
<path d="M1297 2033 c-28 -3 -37 -8 -33 -18 3 -8 0 -16 -7 -18 -7 -2 -9 -7 -6
-10 3 -4 23 2 44 13 39 20 67 41 50 38 -6 -1 -27 -3 -48 -5z"/>
<path d="M1700 2021 c0 -5 18 -13 40 -19 42 -10 54 0 21 18 -24 12 -61 13 -61
1z"/>
<path d="M2088 2020 c-14 -8 -14 -16 -5 -45 6 -19 13 -35 16 -35 9 0 61 46 61
54 0 4 -5 4 -10 1 -6 -4 -18 3 -28 14 -13 15 -21 18 -34 11z"/>
<path d="M984 1997 c-10 -22 -7 -25 47 -49 l58 -26 15 23 c16 25 12 35 -14 35
-8 0 -33 9 -55 20 -22 11 -39 20 -40 20 0 0 -5 -11 -11 -23z"/>
<path d="M1157 2013 c-20 -19 -5 -33 38 -33 38 0 45 3 45 20 0 17 -7 20 -38
20 -21 0 -42 -3 -45 -7z"/>
<path d="M1356 2005 c-12 -9 -15 -15 -7 -15 11 0 11 -3 0 -16 -18 -22 -67 -46
-73 -35 -7 11 4 21 25 21 9 0 19 7 23 15 6 17 -9 21 -19 5 -3 -5 -17 -10 -30
-10 -19 0 -26 -8 -34 -37 -16 -55 -15 -55 37 -47 53 7 72 19 72 43 0 9 9 33
19 54 20 40 17 45 -13 22z"/>
<path d="M1486 1994 c-4 -9 -2 -13 5 -8 7 4 9 0 6 -12 -3 -11 1 -32 8 -49 12
-24 14 -25 8 -5 -3 14 -5 40 -4 58 2 33 -12 44 -23 16z"/>
<path d="M1680 1989 c13 -11 25 -26 26 -34 6 -42 16 -52 65 -63 70 -16 69 -17
46 33 -15 33 -28 47 -47 51 -14 3 -45 12 -70 19 l-45 14 25 -20z m85 -31 c5 4
5 1 1 -6 -5 -8 1 -16 16 -21 17 -7 19 -10 6 -10 -10 -1 -18 -7 -18 -13 0 -15
-34 31 -36 50 -2 9 1 10 10 3 7 -6 17 -7 21 -3z"/>
<path d="M570 1985 c0 -9 -9 -15 -22 -16 -18 -1 -17 -3 6 -8 35 -7 38 -22 7
-36 -11 -5 -21 -12 -21 -16 0 -12 38 -2 54 14 10 9 25 17 34 18 11 0 12 2 4 6
-6 2 -9 10 -6 16 5 8 2 8 -7 0 -17 -17 -33 -17 -26 0 2 6 -2 18 -9 25 -12 10
-14 10 -14 -3z"/>
<path d="M2033 1992 c-9 -6 -10 -17 -2 -45 9 -33 12 -36 29 -27 17 9 18 14 8
38 -16 37 -21 42 -35 34z"/>
<path d="M1411 1953 c-19 -18 -32 -35 -29 -38 2 -3 20 11 38 30 43 45 36 51
-9 8z"/>
<path d="M1461 1963 c-1 -12 -8 -26 -17 -31 -15 -8 -15 -10 0 -15 9 -4 16 -1
16 6 0 23 20 -17 20 -41 0 -13 4 -21 9 -18 5 3 11 -4 14 -17 2 -12 8 -29 11
-39 5 -11 1 -18 -14 -23 -18 -6 -21 -12 -16 -38 3 -17 8 -32 10 -34 5 -5 74
26 80 36 3 5 -12 36 -34 69 -23 33 -49 85 -60 114 -11 31 -19 44 -19 31z"/>
<path d="M1983 1972 c-28 -4 -29 -14 -5 -35 14 -13 21 -14 30 -5 13 13 16 35
5 40 -5 2 -18 2 -30 0z"/>
<path d="M1121 1944 c-10 -22 -10 -29 1 -35 16 -11 38 -11 37 -1 -1 4 -1 16 0
27 2 18 4 17 13 -5 6 -14 12 -29 12 -34 1 -5 6 -11 12 -13 6 -2 16 14 22 37
10 39 9 40 -17 40 -14 0 -35 3 -47 6 -15 4 -23 -1 -33 -22z"/>
<path d="M1838 1963 c24 -5 28 -13 12 -29 -5 -5 -7 -19 -4 -32 6 -19 13 -22
60 -22 29 0 56 5 59 10 4 6 -2 24 -13 41 -17 28 -25 31 -78 33 -32 2 -49 1
-36 -1z m109 -57 c-5 -16 -48 -20 -57 -5 -5 7 -6 18 -3 25 6 16 66 -3 60 -20z"/>
<path d="M2204 1961 c3 -4 19 -14 36 -21 16 -7 30 -17 30 -22 0 -5 -19 2 -41
15 -34 21 -47 23 -70 15 -24 -8 -27 -14 -22 -39 3 -15 2 -36 -2 -46 -7 -17 -8
-17 -15 2 -7 17 -9 15 -9 -12 -1 -20 -8 -37 -22 -47 -16 -11 -19 -18 -11 -32
8 -15 16 -11 62 32 52 49 52 49 46 98 -5 45 -4 48 10 34 9 -9 19 -30 23 -47
l6 -32 44 45 44 45 -27 11 c-33 12 -89 13 -82 1z"/>
<path d="M822 1948 c-7 -7 -12 -17 -12 -22 1 -11 45 -66 53 -66 3 0 4 19 3 43
-1 52 -19 70 -44 45z"/>
<path d="M507 1937 c-4 -11 -12 -14 -24 -10 -17 6 -17 6 0 -12 11 -11 21 -14
25 -8 4 5 16 15 27 22 14 9 15 11 3 7 -9 -3 -18 0 -21 7 -2 6 -6 4 -10 -6z"/>
<path d="M889 1933 c-2 -34 3 -58 21 -98 l18 -40 1 40 c1 22 3 49 6 60 3 14
-3 26 -20 38 -24 17 -25 17 -26 0z"/>
<path d="M2303 1918 c-14 -16 9 -54 26 -43 14 8 14 17 -2 39 -11 15 -15 15
-24 4z"/>
<path d="M440 1917 c0 -17 36 -37 65 -37 25 0 39 -7 54 -27 16 -22 20 -24 21
-10 0 10 -7 20 -15 23 -8 4 -13 10 -10 14 7 11 -20 20 -43 13 -11 -2 -32 3
-46 12 -14 10 -26 15 -26 12z"/>
<path d="M1382 1891 c-15 -11 -25 -31 -29 -57 -5 -38 -3 -41 33 -65 37 -24 40
-25 57 -9 24 23 23 44 -2 30 -35 -18 -37 -11 -3 10 32 20 37 35 22 80 l-8 25
-1 -25 c-1 -17 -11 -32 -30 -43 -36 -21 -41 -21 -41 -1 0 8 5 12 10 9 13 -8
23 17 18 44 -3 19 -4 20 -26 2z"/>
<path d="M2063 1898 c-28 -13 -29 -29 -5 -51 21 -19 32 -13 32 15 0 10 7 21
15 24 8 4 15 10 15 15 0 12 -30 10 -57 -3z"/>
<path d="M957 1893 c-12 -11 -8 -88 5 -101 9 -9 18 -6 40 15 35 33 35 46 2 72
-28 22 -37 25 -47 14z"/>
<path d="M2508 1865 c2 -14 8 -25 12 -25 12 0 33 30 26 37 -3 3 -6 0 -6 -8 -1
-10 -3 -9 -11 4 -15 25 -27 21 -21 -8z"/>
<path d="M1720 1861 c0 -11 5 -32 10 -46 9 -23 8 -26 -4 -22 -9 4 -18 2 -21
-3 -4 -6 -14 -10 -23 -10 -13 0 -12 3 6 16 12 8 22 25 22 36 0 17 -6 12 -30
-21 -17 -23 -37 -44 -45 -48 -8 -3 -15 -9 -15 -15 0 -5 10 -2 22 6 33 24 38
20 38 -28 0 -63 22 -77 49 -31 16 28 19 41 11 56 -9 16 -6 24 16 44 27 25 68
33 78 16 3 -4 -12 -16 -34 -26 -29 -13 -37 -21 -30 -30 6 -8 3 -29 -10 -65
-15 -42 -17 -56 -7 -62 15 -10 37 -10 37 0 0 4 14 13 30 20 17 8 28 17 25 22
-3 5 2 15 10 23 18 18 18 66 1 122 -10 36 -15 40 -55 47 -24 4 -52 10 -62 13
-14 5 -19 1 -19 -14z m-9 -164 c-13 -13 -15 24 -3 63 6 22 7 21 10 -14 2 -21
-1 -43 -7 -49z m129 50 c0 -7 -6 -19 -12 -26 -10 -11 -10 -12 -1 -7 9 5 11 2
7 -8 -8 -21 -34 -28 -40 -12 -6 16 23 66 37 66 5 0 9 -6 9 -13z"/>
<path d="M476 1838 c3 -54 4 -59 14 -53 6 3 13 -1 16 -9 3 -9 10 -14 15 -11 4
3 15 -7 23 -22 9 -16 16 -21 16 -13 0 8 9 -1 18 -20 61 -121 166 -264 188
-256 7 3 16 1 19 -5 4 -5 11 -7 16 -3 6 3 4 11 -6 18 -9 6 -17 20 -19 31 -2
11 -12 25 -23 30 -12 6 -27 16 -35 23 -8 6 -19 8 -23 4 -5 -4 -5 -2 -1 5 4 7
-1 24 -10 38 -9 14 -13 25 -9 25 5 0 -2 8 -13 19 -12 10 -19 21 -15 25 3 3 -2
6 -11 6 -10 0 -16 6 -13 13 2 6 -2 25 -10 41 -8 15 -10 25 -4 22 6 -4 11 -2
11 3 0 6 -11 11 -25 11 -16 0 -25 6 -25 16 0 14 -3 14 -15 4 -13 -11 -20 -9
-40 10 -30 28 -33 60 -6 60 11 0 22 4 25 8 3 5 -9 8 -27 8 -28 -1 -32 -4 -31
-28z"/>
<path d="M1223 1852 c-3 -7 -3 -23 -1 -37 3 -13 0 -26 -6 -28 -7 -3 -7 -9 3
-20 10 -13 10 -17 1 -17 -9 0 -11 -16 -8 -60 2 -33 7 -62 10 -66 4 -3 25 -3
47 1 33 5 41 11 41 28 -1 20 -2 21 -14 5 -14 -20 -36 -24 -36 -8 0 6 5 10 10
10 6 0 10 7 10 15 0 8 7 15 15 15 8 0 15 9 15 20 0 12 -5 17 -14 14 -8 -3 -19
8 -29 28 -18 36 -14 48 13 48 14 0 19 -6 17 -21 -1 -12 4 -24 11 -26 8 -3 12
6 12 26 0 20 -5 31 -14 31 -17 0 -27 35 -13 49 7 7 -2 9 -28 8 -21 -1 -40 -8
-42 -15z"/>
<path d="M1938 1863 c-35 -4 -38 -7 -38 -34 0 -18 -4 -28 -10 -24 -5 3 -10 1
-10 -5 0 -6 7 -13 15 -16 8 -4 15 -11 15 -18 0 -13 58 -38 64 -28 21 36 27
135 7 130 -3 -1 -23 -3 -43 -5z"/>
<path d="M2634 1849 c4 -18 0 -32 -14 -44 -27 -24 -25 -48 5 -62 24 -11 36 -1
15 12 -30 19 3 59 85 104 20 10 20 10 -1 11 -12 0 -32 -9 -45 -19 -24 -19 -24
-19 -37 2 -13 21 -13 21 -8 -4z"/>
<path d="M414 1819 c-19 -18 -38 -26 -70 -28 -14 -1 16 -91 29 -91 5 0 7 6 4
14 -3 8 1 17 9 20 8 3 14 14 14 24 0 24 19 42 45 42 18 1 19 1 2 11 -9 6 -15
14 -12 20 10 15 1 10 -21 -12z"/>
<path d="M269 1765 c17 -20 42 -58 56 -85 14 -28 27 -50 29 -50 2 0 -5 36 -17
79 -21 81 -29 90 -81 91 -15 0 -13 -5 13 -35z"/>
<path d="M1003 1780 l-32 -17 34 -33 34 -33 -2 51 c-1 29 -2 51 -2 51 0 -1
-14 -9 -32 -19z"/>
<path d="M2016 1785 c-12 -33 -7 -47 17 -40 21 6 21 5 2 -6 -11 -6 -27 -21
-36 -32 -15 -19 -14 -22 17 -50 30 -25 45 -57 28 -57 -3 0 -25 16 -48 35 -66
53 -126 44 -126 -20 0 -14 6 -15 33 -9 46 11 76 7 114 -16 l33 -19 7 27 c14
53 7 139 -14 172 -17 26 -21 29 -27 15z"/>
<path d="M2172 1788 c-6 -8 -30 -23 -52 -33 -30 -14 -39 -22 -34 -34 4 -9 8
-35 9 -59 3 -38 8 -47 54 -83 29 -23 55 -39 58 -35 4 3 -4 28 -17 55 -21 46
-22 53 -10 115 14 73 11 96 -8 74z m-12 -67 c0 -6 -5 -13 -10 -16 -6 -4 -10
-14 -9 -23 3 -39 -4 -44 -11 -7 -5 27 -4 42 4 47 15 10 26 10 26 -1z"/>
<path d="M2666 1792 c-12 -20 11 -47 63 -72 35 -16 47 -26 39 -32 -21 -13 -50
-9 -71 10 -11 9 -17 11 -13 5 10 -18 -4 -16 -41 7 -18 11 -33 15 -33 10 0 -6
4 -10 10 -10 5 0 7 -6 4 -13 -3 -8 3 -20 12 -28 16 -13 16 -12 6 8 -12 21 -11
21 19 6 47 -23 102 -20 138 8 16 13 30 32 30 41 1 9 9 24 18 34 13 13 14 16 3
12 -8 -2 -26 -20 -39 -40 l-23 -36 -43 21 c-25 13 -49 35 -57 51 -9 19 -17 26
-22 18z"/>
<path d="M2732 1792 c-21 -14 -3 -42 27 -42 25 1 25 1 5 13 -12 7 -19 18 -17
25 5 14 3 15 -15 4z"/>
<path d="M428 1753 c-30 -37 -58 -96 -53 -113 3 -9 13 -24 23 -33 14 -13 19
-13 29 -2 10 11 9 15 -7 20 -26 8 -29 36 -6 63 34 39 49 26 75 -65 11 -37 -2
-45 -26 -15 -8 9 -12 12 -9 6 3 -5 6 -32 7 -58 2 -26 7 -50 12 -53 6 -3 7 -1
4 4 -4 6 2 18 12 27 18 16 22 15 75 -39 31 -31 56 -59 56 -61 0 -2 18 -20 40
-40 44 -40 49 -54 23 -55 -10 0 0 -7 21 -15 22 -8 42 -12 44 -9 3 3 0 5 -7 5
-7 0 -10 4 -7 9 4 5 -4 7 -16 5 -13 -2 -17 -1 -10 2 10 5 10 10 -4 25 -9 10
-14 19 -9 19 4 0 2 7 -5 15 -7 8 -16 13 -20 10 -19 -12 -82 109 -135 258 -15
43 -29 76 -31 74 -5 -4 62 -200 78 -230 5 -10 7 -21 4 -24 -2 -3 -15 16 -28
42 -14 26 -28 46 -33 45 -5 -1 -11 4 -14 11 -2 7 1 9 8 5 14 -9 14 -7 -4 45
-23 66 -58 139 -65 139 -4 0 -14 -8 -22 -17z"/>
<path d="M1342 1753 c4 -13 2 -23 -3 -23 -5 0 -9 -21 -9 -46 0 -32 4 -44 12
-42 8 3 12 19 10 44 -2 37 -2 38 13 20 8 -11 15 -26 15 -33 0 -17 0 -17 54 7
47 20 52 26 37 49 -6 9 -11 10 -15 2 -4 -6 -16 -16 -27 -22 -17 -9 -26 -5 -56
28 -30 31 -35 34 -31 16z"/>
<path d="M1063 1744 c-11 -29 12 -49 60 -54 44 -6 46 -5 41 16 -3 12 0 25 6
29 20 12 -10 25 -58 25 -30 0 -44 -5 -49 -16z"/>
<path d="M2536 1745 c-12 -12 -20 -13 -35 -5 -14 7 -22 7 -26 0 -5 -8 -11 -8
-20 0 -9 8 -14 6 -19 -6 -9 -23 -8 -24 11 -17 20 8 19 6 -65 -112 -65 -92
-105 -134 -155 -161 -15 -8 -25 -20 -21 -25 4 -8 10 -7 16 2 8 11 9 11 5 -1
-2 -8 -10 -15 -18 -15 -8 0 -14 -11 -14 -27 -1 -15 -10 -37 -20 -50 -11 -13 4
-1 33 27 52 50 62 62 40 49 -7 -4 3 8 23 27 19 19 26 27 14 19 -12 -8 -2 3 20
25 62 60 119 134 140 185 22 51 30 59 54 53 9 -2 27 7 40 21 26 28 23 37 -3
11z"/>
<path d="M1571 1691 l-32 -50 20 -20 c12 -12 21 -27 21 -35 0 -7 12 -22 27
-31 24 -16 27 -16 38 -1 18 24 28 20 21 -9 -4 -14 -2 -25 3 -25 14 0 81 60 81
71 0 15 -64 50 -82 45 -10 -2 -18 0 -18 5 0 4 -17 20 -37 34 -25 16 -32 25
-20 25 10 0 29 -7 43 -16 38 -25 38 -12 0 25 l-33 32 -32 -50z m119 -103 c0
-11 -8 -10 -31 2 -13 7 -19 7 -19 0 0 -5 -7 -10 -17 -10 -9 0 -13 3 -10 7 4 3
2 12 -4 19 -6 7 -8 18 -4 24 6 10 85 -28 85 -42z"/>
<path d="M2870 1724 c0 -11 -13 -33 -29 -48 -24 -23 -38 -28 -88 -29 -73 -2
-74 -15 -6 -72 32 -27 42 -32 34 -16 -11 20 -9 21 26 21 21 0 44 4 51 8 6 5
-13 7 -43 6 -41 -2 -61 3 -77 16 -23 18 -22 18 32 18 56 1 61 4 107 70 12 17
13 26 4 35 -8 8 -11 6 -11 -9z"/>
<path d="M1533 1700 c-18 -11 -33 -24 -33 -30 0 -18 15 -11 45 20 34 35 32 37
-12 10z"/>
<path d="M2580 1660 c-11 -22 -24 -40 -29 -40 -5 0 -15 -17 -21 -37 -7 -21
-18 -42 -24 -48 -7 -5 -18 -21 -25 -35 -11 -24 -11 -23 9 3 12 15 29 27 39 27
12 0 22 16 35 55 9 30 20 55 23 55 3 0 3 -30 -1 -67 l-6 -68 20 32 c19 28 20
36 9 77 -6 25 -9 55 -6 66 8 31 -1 24 -23 -20z"/>
<path d="M2513 1683 c-30 -4 -55 -30 -27 -30 7 0 11 5 8 11 -3 6 4 0 17 -14
21 -24 21 -24 15 -2 -6 16 -3 22 8 22 9 0 16 5 16 10 0 6 -1 9 -2 8 -2 0 -17
-3 -35 -5z"/>
<path d="M1122 1655 c-30 -7 -61 -20 -70 -30 -16 -16 -15 -16 15 0 31 18 33
18 72 1 50 -23 63 -19 48 15 -12 26 -12 26 -65 14z"/>
<path d="M1435 1651 c-22 -10 -53 -21 -68 -25 -15 -3 -32 -17 -37 -29 -7 -17
-9 -18 -9 -4 -1 20 -21 23 -39 5 -22 -22 -12 -33 49 -54 l60 -21 52 54 c73 78
70 110 -8 74z m-37 -66 c11 -23 0 -36 -13 -15 -3 5 -12 7 -20 3 -9 -3 -15 1
-15 9 0 36 32 37 48 3z"/>
<path d="M881 1616 c-38 -61 -27 -70 34 -29 57 37 59 46 13 57 -22 5 -30 1
-47 -28z"/>
<path d="M1465 1560 l-49 -50 92 0 c51 0 92 3 92 6 0 7 -70 87 -80 92 -3 1
-28 -20 -55 -48z"/>
<path d="M190 1537 c0 -32 22 -73 52 -98 25 -21 30 -30 22 -40 -6 -8 -14 -29
-17 -47 -6 -30 -4 -34 27 -47 19 -8 37 -24 41 -37 6 -21 7 -20 17 12 5 19 15
41 21 49 10 12 9 13 -8 7 -11 -4 -35 -10 -52 -13 -26 -4 -33 -2 -33 11 0 9 4
16 9 16 5 0 8 8 7 17 -2 24 42 44 87 41 50 -5 47 9 -5 22 -107 26 -118 31
-133 59 -8 16 -12 31 -9 33 2 3 -2 11 -11 18 -12 10 -15 10 -15 -3z"/>
<path d="M2619 1507 c-20 -23 -43 -56 -51 -72 l-16 -30 39 -3 c44 -3 101 23
138 62 14 14 32 26 42 26 10 0 20 4 24 9 3 6 -9 7 -30 4 -26 -4 -36 -2 -41 11
-4 11 -13 14 -29 10 -15 -4 -26 0 -32 10 -7 13 -15 9 -44 -27z m80 -31 c-12
-25 -51 -43 -57 -26 -2 5 -14 -3 -27 -18 -37 -43 -39 -19 -3 26 26 32 40 41
65 41 31 1 32 0 22 -23z"/>
<path d="M1716 1521 c-32 -14 -36 -19 -22 -24 38 -15 63 -8 68 18 6 29 6 29
-46 6z"/>
<path d="M2426 1473 c-23 -44 -97 -124 -108 -116 -7 4 -8 1 -3 -6 5 -9 20 -1
50 29 38 37 94 120 81 120 -3 0 -12 -12 -20 -27z"/>
<path d="M2549 1474 c-13 -14 -35 -31 -49 -38 -14 -7 -24 -18 -22 -25 2 -8 -3
-11 -12 -8 -9 4 -19 0 -23 -7 -5 -7 -17 -18 -28 -24 -17 -10 -17 -11 -3 -12
29 0 89 33 84 47 -3 7 0 15 6 19 6 4 8 3 4 -4 -3 -6 -1 -14 5 -18 8 -4 9 -3 5
5 -4 7 8 26 29 47 20 19 35 37 33 40 -3 2 -15 -8 -29 -22z"/>
<path d="M446 1468 c21 -36 46 -68 55 -68 18 0 8 26 -20 53 -31 28 -47 35 -35
15z"/>
<path d="M695 1429 c21 -23 54 -55 74 -72 20 -17 5 2 -34 41 -76 79 -99 96
-40 31z"/>
<path d="M811 1437 c-10 -15 -11 -22 -2 -25 6 -2 11 -10 11 -18 0 -8 6 -11 15
-8 8 4 15 15 15 27 0 19 14 16 16 -4 1 -5 2 -13 3 -17 0 -5 13 -14 27 -21 20
-9 24 -14 15 -25 -8 -10 -8 -16 4 -26 8 -7 13 -16 10 -20 -7 -12 35 -40 58
-40 10 0 30 -9 44 -20 14 -11 36 -20 49 -20 12 0 26 -4 29 -10 3 -5 13 -10 21
-10 8 0 14 5 14 10 0 6 -9 10 -21 10 -11 0 -18 4 -15 8 2 4 -7 9 -22 10 -15 1
-28 7 -30 12 -2 6 -10 10 -18 10 -8 0 -14 4 -14 9 0 12 44 5 79 -13 22 -11 28
-10 43 5 15 16 14 18 -26 28 -23 5 -62 23 -86 40 -24 16 -50 26 -58 23 -10 -3
-13 -1 -8 6 4 8 2 10 -7 6 -8 -3 -33 12 -58 35 -30 27 -47 36 -56 30 -7 -7
-14 -6 -19 2 -4 8 -3 9 4 5 7 -4 12 -3 12 3 0 20 -16 19 -29 -2z m158 -102
c30 -10 40 -11 36 -2 -4 7 3 1 14 -12 27 -30 27 -45 0 -31 -17 9 -23 8 -33 -5
-10 -14 -16 -15 -34 -6 -27 14 -27 17 -3 17 11 0 17 -5 14 -11 -4 -5 -2 -6 2
-2 16 14 13 35 -4 32 -17 -3 -41 12 -41 26 0 12 0 12 49 -6z"/>
<path d="M2255 1376 c-38 -39 -56 -61 -39 -49 30 22 114 108 114 118 0 7 1 8
-75 -69z"/>
<path d="M773 1382 c26 -27 45 -51 42 -55 -3 -4 -2 -5 2 -2 3 3 13 -1 22 -7 9
-7 -11 16 -44 50 -33 34 -62 62 -64 62 -3 0 16 -22 42 -48z"/>
<path d="M2070 1334 c-52 -29 -100 -52 -105 -50 -6 2 -24 -1 -39 -8 -26 -10
-27 -13 -12 -25 13 -11 24 -10 71 9 30 12 58 26 61 31 3 5 12 9 20 9 8 0 12
-4 9 -10 -3 -5 -1 -10 5 -10 6 0 10 7 8 16 -2 9 8 23 22 32 25 16 25 16 8 -4
-27 -31 -22 -41 7 -14 14 13 25 29 25 37 0 7 5 13 11 13 5 0 7 -6 3 -12 -4 -7
-3 -10 1 -5 11 10 17 47 7 46 -4 -1 -50 -25 -102 -55z"/>
<path d="M428 1363 c-10 -2 -18 -8 -18 -12 0 -4 -16 -29 -36 -55 -53 -67 -32
-70 30 -3 33 36 60 57 74 57 28 0 30 -35 2 -52 -11 -7 -20 -18 -20 -25 0 -7
-17 -24 -38 -37 -45 -28 -75 -56 -68 -63 3 -3 15 4 27 16 13 12 30 21 40 21 9
0 26 15 37 34 22 36 106 105 132 107 8 0 4 5 -10 9 -27 9 -124 11 -152 3z"/>
<path d="M2355 1350 c-3 -5 -3 -10 2 -10 4 0 -12 -9 -36 -20 -23 -11 -48 -17
-55 -13 -8 4 -8 3 0 -6 8 -8 25 -5 70 13 33 14 50 26 39 26 -20 1 -20 1 0 10
16 7 17 9 3 9 -9 1 -20 -3 -23 -9z"/>
<path d="M2445 1330 c-4 -6 -1 -26 5 -44 23 -70 -16 -121 -101 -132 -27 -4
-49 -10 -49 -14 0 -10 37 -20 75 -20 17 0 36 -4 43 -9 17 -10 69 40 74 72 2
18 9 22 36 22 25 0 34 5 38 22 3 12 15 30 26 39 16 15 21 16 28 4 5 -8 12 -11
16 -7 13 13 -8 24 -94 51 -96 30 -89 29 -97 16z m113 -46 c11 -8 -22 -44 -49
-53 -18 -6 -33 -11 -34 -11 -1 0 -1 15 -1 33 2 49 11 58 49 45 17 -6 33 -12
35 -14z"/>
<path d="M570 1301 c-47 -9 -88 -38 -106 -72 -17 -33 -2 -40 27 -13 13 12 28
14 58 9 23 -4 41 -10 41 -14 0 -16 -62 -43 -85 -37 -18 5 -23 3 -19 -8 3 -8
13 -12 25 -9 15 4 22 -3 34 -31 19 -44 20 -70 3 -60 -7 4 -10 4 -6 -1 13 -14
-13 -47 -33 -42 -22 6 -26 -8 -4 -16 9 -4 25 7 42 27 35 42 79 64 140 73 45 6
93 27 93 42 0 3 -21 5 -47 3 -68 -5 -119 19 -127 58 -3 18 0 45 9 66 15 37 16
37 -45 25z m13 -47 c-7 -18 -27 -18 -42 0 -10 12 -7 15 17 14 21 -1 29 -5 25
-14z m51 -107 c18 -13 18 -14 -5 -30 -42 -30 -69 -18 -69 33 0 33 27 32 74 -3z"/>
<path d="M720 1295 c0 -7 161 -87 166 -83 2 2 -35 23 -81 46 -47 23 -85 40
-85 37z"/>
<path d="M2140 1264 c-85 -52 -90 -56 -24 -25 33 16 66 36 73 45 17 21 16 20
-49 -20z"/>
<path d="M2220 1289 c-12 -8 -10 -9 7 -4 12 3 25 1 29 -6 4 -7 2 -10 -7 -7
-16 5 -79 -21 -232 -98 -60 -30 -112 -52 -116 -49 -5 2 -16 -4 -26 -15 -11
-13 -31 -20 -52 -20 -20 0 -32 -4 -28 -10 3 -6 18 -7 32 -3 l27 6 -20 -33
c-19 -33 -42 -43 -154 -66 -22 -5 -23 -3 -10 8 8 7 21 24 28 36 16 29 26 192
11 192 -6 0 -9 -20 -8 -50 2 -27 0 -53 -4 -56 -4 -4 -7 16 -7 44 0 28 -4 54
-10 57 -6 4 -10 -21 -10 -68 0 -74 0 -75 -39 -110 -41 -37 -97 -59 -129 -50
-10 2 -24 -2 -31 -11 -10 -12 -9 -14 6 -11 51 10 106 13 92 4 -9 -5 -10 -9 -2
-9 7 0 17 9 23 20 6 11 14 19 18 16 10 -6 37 15 51 42 7 12 16 20 22 17 14 -9
11 -19 -13 -45 -13 -14 -22 -28 -20 -33 1 -5 -1 -6 -6 -3 -4 2 -30 -9 -57 -26
-28 -16 -41 -27 -30 -23 11 4 52 14 90 23 39 9 72 18 75 21 3 3 19 6 35 7 39
1 397 175 422 204 10 12 39 32 65 46 26 13 50 29 54 35 3 6 -14 -1 -39 -16
-26 -14 -52 -23 -58 -19 -7 4 -9 3 -6 -3 10 -16 -19 -35 -127 -87 -132 -64
-173 -78 -180 -63 -3 9 -8 8 -15 -3 -9 -13 -11 -13 -11 1 0 9 7 22 15 29 8 7
15 10 15 6 0 -3 27 7 59 24 33 16 66 27 74 24 15 -5 143 42 152 57 3 4 -27 -5
-66 -21 -107 -45 -107 -35 0 16 51 24 98 41 104 37 6 -4 7 -1 3 6 -5 8 -3 11
5 10 8 -2 24 1 37 5 22 7 22 8 5 22 -22 16 -24 16 -43 3z"/>
<path d="M653 1258 c11 -26 21 -35 53 -42 62 -13 72 -19 42 -24 -15 -2 -37 2
-48 8 -12 6 -24 9 -27 6 -10 -9 64 -36 98 -36 27 0 30 2 19 15 -14 17 -135
105 -144 105 -3 0 0 -15 7 -32z"/>
<path d="M843 1277 c0 -14 56 -46 170 -97 106 -47 101 -36 -9 20 -54 28 -113
59 -130 70 -22 14 -31 16 -31 7z"/>
<path d="M2364 1261 c-81 -51 -179 -123 -159 -118 48 14 127 48 102 44 -42 -7
-19 8 36 23 36 10 51 19 58 38 15 38 8 41 -37 13z"/>
<path d="M2419 1247 c-10 -22 -25 -36 -49 -44 -19 -7 -27 -12 -17 -12 30 -1
77 32 84 57 9 36 -2 35 -18 -1z"/>
<path d="M1249 1261 c11 -7 11 -9 0 -13 -8 -3 -2 -7 13 -10 18 -3 32 0 40 10
11 13 10 15 -9 10 -13 -4 -23 -2 -23 3 0 5 -8 9 -17 9 -14 0 -15 -2 -4 -9z"/>
<path d="M2010 1249 c-30 -11 -67 -25 -82 -31 -32 -11 -37 -34 -9 -34 11 0 18
3 15 7 -6 10 97 50 110 42 6 -3 7 -2 3 2 -4 5 3 15 15 22 34 19 10 15 -52 -8z"/>
<path d="M1694 1241 c-2 -2 -72 -4 -156 -4 -114 -1 -133 -2 -73 -7 44 -3 71
-8 60 -11 -11 -4 15 -7 57 -8 42 0 80 4 83 9 3 6 27 10 53 11 26 0 56 4 67 9
14 7 5 9 -33 7 -30 -1 -55 -4 -58 -6z"/>
<path d="M813 1214 c0 -7 7 -10 15 -6 10 3 13 1 8 -6 -8 -13 23 -31 42 -25 6
3 12 1 12 -5 0 -5 25 -17 55 -27 30 -11 52 -21 50 -24 -3 -2 57 -35 132 -72
75 -38 139 -66 141 -64 3 2 11 -2 19 -10 8 -8 20 -15 26 -15 8 0 8 3 -1 9 -11
7 -10 10 3 15 9 3 22 3 27 -1 7 -3 8 -1 4 5 -4 7 -24 12 -44 12 -59 0 -82 10
-81 34 0 11 3 15 6 8 2 -7 13 -17 23 -22 16 -9 19 -6 17 17 -2 22 -8 28 -25
27 -25 -1 -28 6 -10 24 9 9 6 12 -16 12 -24 0 -27 -2 -16 -15 7 -9 10 -19 6
-22 -4 -4 -10 -3 -14 3 -4 5 -26 18 -50 28 -28 13 -41 24 -38 33 3 8 2 12 -3
9 -5 -3 -42 7 -82 24 -40 16 -74 28 -76 26 -4 -4 36 -24 100 -50 20 -8 37 -20
37 -26 0 -6 4 -9 9 -6 5 3 20 -3 32 -15 l24 -20 -25 7 c-53 14 -115 43 -95 44
12 1 0 9 -28 20 -26 10 -78 33 -115 52 -42 21 -69 29 -69 22z"/>
<path d="M1193 1218 c-19 -32 -1 -54 32 -42 18 7 19 26 3 42 -15 15 -25 15
-35 0z"/>
<path d="M1326 1193 c-16 -97 8 -189 56 -214 23 -12 23 -12 -2 15 -22 24 -25
37 -26 109 -3 121 -3 127 -13 127 -4 0 -11 -17 -15 -37z"/>
<path d="M1788 1201 c-23 -18 -26 -26 -17 -37 6 -8 19 -13 28 -13 13 1 13 2
-1 6 -31 8 -19 23 17 23 29 0 35 4 36 23 0 12 3 16 6 9 2 -6 9 -10 14 -6 5 3
9 -2 9 -11 0 -9 -4 -14 -8 -11 -5 3 -8 -5 -8 -16 1 -29 -40 -51 -65 -35 -20
12 -35 5 -24 -12 9 -15 41 -14 74 4 29 15 46 53 36 84 -8 25 -64 21 -97 -8z"/>
<path d="M1370 1201 c0 -11 5 -23 10 -26 6 -3 10 3 10 14 0 17 8 20 58 24 l57
3 -67 2 c-61 2 -68 0 -68 -17z"/>
<path d="M1126 1179 c3 -5 10 -9 15 -9 6 0 18 -9 28 -21 10 -12 30 -22 48 -23
18 -1 35 -5 39 -9 22 -21 33 13 14 43 -8 12 -11 12 -28 -3 -24 -22 -54 -22
-69 2 -6 10 -21 21 -32 24 -12 3 -19 1 -15 -4z"/>
<path d="M1402 1175 c7 -7 209 -8 216 -1 3 3 -46 6 -108 6 -62 0 -111 -2 -108
-5z"/>
<path d="M317 1101 c-26 -74 -23 -94 21 -124 61 -43 82 -47 131 -27 26 10 39
19 30 22 -7 2 -20 -1 -27 -9 -7 -7 -25 -13 -39 -13 -30 0 -83 30 -83 47 0 7
-7 10 -15 7 -18 -7 -19 15 -4 86 14 67 8 72 -14 11z"/>
<path d="M884 1131 c4 -6 -4 -9 -22 -7 -15 2 -41 2 -56 -1 -28 -6 -28 -7 -21
-57 7 -55 36 -129 54 -141 9 -5 11 12 9 61 -2 66 -2 67 36 100 37 32 37 33 16
44 -14 8 -20 8 -16 1z m-39 -41 c7 -11 -12 -50 -24 -50 -11 0 -22 40 -15 52 7
11 31 10 39 -2z"/>
<path d="M1957 1116 c-20 -12 -41 -26 -45 -30 -11 -12 65 21 90 39 36 24 -2
17 -45 -9z"/>
<path d="M2255 1129 c-11 -4 -41 -8 -67 -8 -28 -1 -48 -6 -48 -12 0 -6 7 -9
15 -5 17 6 55 -46 55 -76 0 -10 5 -18 10 -18 6 0 10 7 10 17 0 9 12 36 26 60
28 49 28 54 -1 42z"/>
<path d="M2770 1118 c0 -9 -7 -24 -16 -32 -14 -15 -13 -16 7 -16 12 0 19 3 16
7 -4 3 -3 11 3 17 5 7 5 17 0 26 -8 13 -10 12 -10 -2z"/>
<path d="M745 1073 c-17 -28 -93 -93 -109 -93 -12 0 -5 34 11 52 15 17 15 18
-5 18 -11 0 -27 -8 -34 -18 -7 -9 -30 -26 -50 -37 -47 -24 -44 -28 7 -10 34
11 42 11 56 -1 22 -20 39 -18 82 12 21 14 40 24 42 22 1 -1 14 -32 29 -68 25
-64 25 -65 6 -84 -22 -22 -13 -25 -120 35 -46 25 -94 25 -120 -1 -24 -24 -25
-47 -3 -72 16 -17 15 -20 -14 -51 -54 -57 -78 -125 -73 -207 1 -25 3 -60 4
-77 2 -29 27 -62 49 -63 4 0 7 -6 7 -13 0 -20 105 -96 184 -132 108 -50 199
-61 344 -40 l52 8 0 -31 c0 -26 7 -36 40 -57 22 -14 40 -30 40 -35 0 -24 39
-7 69 30 17 22 38 40 46 40 9 0 21 -21 30 -54 25 -85 68 -110 133 -77 44 23
57 36 66 71 l7 25 -15 -26 c-18 -32 -86 -64 -119 -55 -28 7 -52 54 -43 84 4
11 2 23 -4 27 -5 3 -10 17 -10 31 0 29 -1 29 -52 3 -52 -27 -65 -40 -70 -69
-5 -37 -26 -36 -30 2 -3 31 -5 33 -35 30 -36 -4 -48 20 -16 32 14 6 14 8 -3
20 -15 12 -16 16 -5 30 7 9 22 16 33 16 17 0 18 -3 8 -15 -10 -12 -10 -15 4
-15 19 0 22 -16 4 -23 -10 -3 -10 -8 1 -21 13 -15 16 -13 34 29 22 50 50 65
87 45 18 -9 36 -8 91 6 76 20 74 28 -10 39 -36 5 -51 4 -47 -3 11 -18 -12 -23
-53 -11 -35 10 -50 8 -147 -22 -186 -58 -342 -43 -480 44 -22 13 -42 25 -46
26 -4 1 -29 24 -54 51 -26 28 -53 50 -60 50 -27 0 -13 16 40 48 30 18 106 70
168 116 62 46 133 94 158 106 55 28 52 24 44 44 -3 9 -14 16 -23 16 -14 0 -14
2 -1 10 13 8 13 10 -2 10 -9 0 -23 3 -31 6 -11 4 -17 -4 -22 -25 -11 -52 -64
-48 -115 10 -8 9 -38 25 -67 35 -43 15 -54 15 -68 4 -20 -16 -33 -4 -19 18 7
10 27 18 51 20 31 2 47 -3 71 -22 16 -15 37 -26 46 -26 9 0 25 -14 34 -30 9
-17 23 -29 31 -28 20 4 26 28 7 28 -23 0 -20 17 7 32 28 15 38 16 60 6 10 -5
17 -5 17 2 0 5 -4 10 -9 10 -5 0 -7 10 -5 23 4 19 3 20 -4 3 -15 -33 -74 83
-81 158 l-6 61 -20 -32z m5 -323 c39 0 29 -20 -30 -60 -13 -8 -45 -32 -72 -53
-27 -21 -53 -35 -58 -32 -15 9 -12 56 5 85 8 14 18 32 22 40 4 8 13 21 20 28
7 7 13 22 13 34 0 18 3 17 42 -11 23 -17 49 -31 58 -31z m-120 42 c0 -5 -12
-18 -26 -31 -33 -28 -49 -68 -64 -158 -8 -48 -17 -73 -27 -78 -26 -9 -36 10
-36 67 0 65 32 136 79 178 32 28 74 40 74 22z"/>
<path d="M889 1071 c-40 -41 -37 -58 6 -31 l36 22 65 -28 c100 -42 136 -98 98
-152 -8 -12 -13 -26 -10 -31 3 -5 -6 -12 -20 -15 -37 -10 -22 -19 16 -11 21 5
30 11 26 21 -4 10 4 14 29 14 18 0 67 14 108 30 42 17 87 30 101 30 42 0 30
17 -16 23 -24 2 -52 8 -62 13 -16 6 -18 4 -14 -14 5 -17 2 -22 -12 -22 -10 0
-23 7 -30 15 -7 8 -18 15 -26 15 -7 0 -36 20 -64 45 -52 46 -156 105 -185 105
-9 0 -30 -13 -46 -29z m282 -152 c11 -5 17 -14 14 -20 -8 -12 -45 -12 -45 1 0
6 6 10 13 10 8 0 7 4 -3 10 -20 13 -4 13 21 -1z"/>
<path d="M2046 1064 c-33 -20 -88 -56 -122 -80 -34 -24 -65 -44 -69 -44 -4 0
-13 -7 -19 -15 -9 -13 -17 -14 -44 -4 -17 6 -29 15 -26 20 8 13 -27 10 -61 -6
l-30 -13 27 -1 c15 -1 56 -12 90 -24 35 -13 83 -27 107 -31 25 -4 63 -20 85
-36 22 -17 46 -30 53 -30 7 0 13 -4 13 -9 0 -4 -11 -6 -25 -3 -14 2 -25 8 -25
13 0 4 -9 13 -20 19 -16 8 -20 8 -18 -2 4 -17 -18 -13 -115 19 -43 14 -81 31
-84 39 -2 7 -20 18 -39 24 -67 22 -88 -13 -30 -49 40 -25 50 -26 42 -6 -5 14
-3 14 22 1 66 -35 196 -68 210 -54 5 5 21 3 38 -6 16 -8 37 -17 47 -20 9 -3
17 -10 17 -16 0 -20 -31 -23 -50 -5 -20 18 -25 18 -180 12 -47 -2 -95 0 -107
4 -12 5 -24 5 -27 1 -3 -5 -69 -7 -148 -6 -286 3 -343 4 -362 3 -11 0 -23 6
-27 13 -6 9 7 18 44 31 29 10 64 25 79 33 17 9 29 11 33 4 11 -18 55 -11 101
16 24 14 50 24 58 21 7 -3 28 -2 47 2 19 4 44 3 57 -2 27 -13 36 -5 27 23 -4
14 -10 18 -18 12 -7 -5 -27 -9 -45 -9 -19 0 -37 -5 -41 -12 -6 -8 -17 -3 -41
19 -30 28 -16 33 18 7 7 -5 15 -7 18 -4 3 3 -18 18 -47 33 l-53 27 27 -36 27
-36 -22 -15 c-31 -20 -108 -47 -108 -38 0 4 9 15 20 25 22 18 26 37 9 37 -16
0 -51 -21 -69 -40 -15 -18 -122 -59 -170 -65 -66 -10 -133 -26 -155 -38 l-25
-13 29 -32 c21 -22 39 -32 58 -32 l28 1 -27 15 c-48 26 -27 60 43 71 25 4 29
1 29 -19 0 -13 -7 -33 -15 -45 -13 -19 -13 -22 2 -28 14 -5 15 -8 4 -14 -9 -6
-10 -11 -2 -15 6 -4 11 -15 11 -25 0 -34 24 -42 149 -50 11 -1 11 -4 1 -16 -8
-10 -17 -12 -24 -6 -6 5 -96 9 -201 10 -191 0 -257 10 -262 39 -2 7 0 11 5 11
26 -4 34 1 22 16 -7 9 -11 18 -8 20 3 3 11 -1 18 -10 11 -14 14 -13 24 7 14
28 58 54 77 44 8 -4 29 -15 47 -25 28 -14 41 -15 79 -7 l46 11 -56 3 c-51 3
-59 6 -82 37 l-26 33 -56 -31 c-69 -39 -153 -120 -177 -171 -10 -21 -18 -57
-19 -82 -2 -38 -4 -42 -15 -27 -11 16 -12 16 -12 0 0 -49 60 -94 159 -117 77
-18 223 -9 283 19 26 11 55 21 65 22 14 0 12 3 -6 10 -30 12 -59 3 -63 -19 -2
-12 -6 -13 -11 -5 -4 6 0 19 9 28 14 13 35 16 113 14 87 -1 151 6 151 18 0 2
-5 14 -12 26 -6 12 -11 39 -9 60 2 35 0 37 -18 28 -11 -6 -18 -18 -16 -28 2
-10 6 -34 9 -53 l6 -35 -39 45 -40 45 -1 -37 c0 -33 -3 -38 -24 -38 -13 0 -27
6 -29 13 -4 10 -6 10 -6 0 -1 -8 -15 -13 -33 -13 l-33 0 2 62 c1 63 1 63 32
66 17 2 31 -1 31 -7 0 -6 -9 -11 -19 -11 -11 0 -23 -5 -27 -11 -4 -6 1 -9 12
-7 20 3 24 -2 24 -27 0 -8 -9 -15 -20 -15 -11 0 -20 -6 -20 -13 0 -24 12 -27
42 -9 26 15 29 22 26 57 -4 57 22 59 63 3 l32 -43 -6 43 -5 42 58 0 c33 0 62
-4 65 -10 3 -5 -3 -10 -14 -10 -22 0 -37 -45 -26 -80 12 -38 35 -23 35 23 0
54 22 77 73 77 28 0 35 -3 31 -15 -5 -11 -11 -12 -25 -5 -22 13 -59 -18 -59
-50 0 -17 3 -18 26 -10 14 6 29 8 33 5 8 -5 26 25 36 62 3 12 15 25 26 28 10
4 19 10 19 15 0 5 8 7 18 3 12 -4 11 0 -6 15 -17 15 -30 18 -50 13 -22 -5
-114 -6 -301 -2 -13 1 -21 4 -18 7 8 9 -11 44 -23 44 -6 0 -10 -7 -10 -15 0
-8 5 -15 10 -15 6 0 10 -4 10 -10 0 -5 -9 -10 -20 -10 -17 0 -20 7 -20 45 0
27 -5 45 -12 45 -6 0 -4 7 5 18 10 10 17 26 17 35 0 38 20 12 42 -55 17 -51
30 -74 43 -77 18 -3 18 -2 1 14 -20 21 -13 33 9 15 8 -7 23 -9 32 -5 16 5 13
10 -16 34 -39 32 -40 66 -2 66 14 0 26 -7 29 -15 4 -12 2 -13 -9 -2 -17 16
-29 15 -29 -2 0 -7 11 -21 25 -30 27 -18 32 -45 13 -64 -9 -9 -8 -12 7 -12 33
0 42 13 47 58 3 41 2 43 -19 37 -16 -4 -23 -1 -23 10 0 11 12 15 51 15 36 0
49 -4 46 -12 -2 -7 -11 -12 -21 -10 -13 2 -16 -6 -16 -48 0 -49 0 -50 31 -50
l31 0 -4 60 c-4 50 -2 60 11 60 13 0 15 -10 12 -56 -3 -49 -1 -56 13 -51 17 7
23 -8 6 -16 -6 -3 -5 -4 2 -3 9 2 13 23 13 64 l0 62 32 0 c37 0 44 -15 13 -25
-26 -8 -26 -25 0 -18 15 4 19 2 14 -10 -3 -9 -12 -13 -20 -10 -10 4 -14 -3
-14 -21 0 -28 9 -33 28 -14 9 9 12 8 12 -6 0 -10 5 -14 11 -10 7 4 10 27 7 60
l-5 54 39 -2 c37 -1 57 -19 80 -68 11 -25 10 14 -2 45 -9 24 -8 26 12 23 15
-2 21 -9 19 -18 -2 -8 -7 -33 -10 -55 l-6 -40 -28 35 c-27 34 -28 35 -21 7 8
-34 -10 -58 -40 -53 -11 2 -15 1 -8 -1 7 -3 10 -9 6 -14 -3 -6 11 -3 31 5 21
9 46 16 56 16 11 0 19 6 19 13 0 8 3 7 10 -3 5 -8 12 -11 16 -8 8 8 8 88 0 96
-3 3 2 11 11 17 15 11 21 8 40 -18 l23 -31 0 27 c0 17 5 27 14 27 11 0 13 -10
9 -41 -5 -32 -2 -44 11 -51 9 -5 16 -13 16 -17 0 -11 -71 -31 -84 -24 -6 3 -8
2 -3 -2 4 -5 -5 -21 -19 -36 -20 -21 -25 -34 -20 -53 8 -34 17 -32 41 7 22 34
62 48 77 25 5 -8 6 -4 3 13 -5 20 -1 30 14 41 20 14 81 13 81 -1 0 -18 -15
-20 -37 -6 -21 14 -24 14 -30 -1 -6 -17 22 -112 40 -129 6 -7 8 6 5 36 -5 42
-3 47 24 62 32 18 83 23 93 8 3 -5 -7 -12 -22 -14 -23 -3 -21 -4 10 -6 20 0
37 4 37 9 0 6 4 10 9 10 6 0 7 -29 4 -70 -5 -61 -4 -70 11 -70 15 0 16 8 11
60 -5 55 -4 60 15 60 11 0 37 -16 58 -35 l39 -35 1 31 c1 27 -2 30 -23 25 -23
-6 -42 15 -30 35 4 5 -7 6 -22 4 -39 -8 -87 8 -91 29 -2 11 0 16 6 12 6 -3 14
-1 18 5 4 8 -3 9 -25 4 -39 -8 -75 2 -63 18 4 7 7 18 6 25 -1 6 -2 24 -3 38
-1 22 -5 25 -28 22 -20 -2 -29 -9 -31 -26 -6 -39 5 -55 28 -42 13 7 20 7 20 0
0 -5 -6 -10 -12 -10 -7 -1 -3 -9 10 -19 31 -27 28 -34 -8 -16 -16 8 -44 15
-63 15 -51 0 -79 38 -61 85 9 24 51 37 75 25 10 -6 19 -7 19 -3 0 4 25 6 55 5
30 -2 55 -8 55 -13 0 -5 -7 -9 -15 -9 -18 0 -20 -16 -2 -23 9 -4 8 -8 -3 -16
-13 -9 -12 -11 4 -11 20 0 20 0 0 -15 -18 -14 -18 -14 11 -15 19 0 56 17 100
46 52 33 77 44 95 40 14 -3 54 -8 90 -11 63 -5 62 -4 -35 18 l-100 22 -59 -47
c-63 -50 -82 -59 -72 -32 4 9 1 23 -5 30 -8 10 -8 14 -1 14 6 0 15 -7 19 -15
8 -13 16 -9 52 21 l42 37 -58 30 c-128 66 -129 66 -109 67 18 0 18 1 3 18 -25
28 -21 66 11 100 33 35 102 59 114 39 5 -8 -2 -16 -21 -24 -36 -15 -71 -59
-71 -89 0 -28 25 -54 52 -54 l21 0 -21 23 c-30 32 -28 41 18 83 39 36 50 66
30 79 -16 10 -11 25 8 25 27 0 51 -65 47 -128 -1 -29 -5 -56 -9 -59 -3 -3 -1
-12 5 -20 9 -10 8 -13 -4 -13 -9 0 -18 4 -21 9 -7 10 -56 2 -56 -10 0 -5 -12
-4 -26 2 -24 9 -26 8 -13 -7 11 -13 25 -15 68 -11 69 7 84 25 78 90 -2 26 0
47 4 47 5 0 9 11 9 25 0 16 -6 25 -15 25 -8 0 -16 6 -16 13 -1 6 -2 17 -3 24
-1 10 -49 54 -58 53 -1 -1 -30 -17 -62 -36z m-114 -156 c-5 -31 -4 -30 -26
-22 -18 7 -21 25 -6 40 21 21 36 12 32 -18z m-532 -328 c0 -12 -67 -13 -74 -2
-3 5 13 9 34 10 22 1 40 -3 40 -8z m-580 -25 c11 -13 8 -14 -21 -9 l-34 6 35
-33 c32 -31 35 -32 38 -14 6 32 22 45 58 45 28 0 34 -4 34 -22 0 -21 0 -21
-14 -2 -12 15 -19 17 -32 8 -33 -20 -39 -40 -20 -69 14 -22 23 -26 44 -21 25
6 25 5 9 -8 -21 -17 -54 -10 -70 14 -10 17 -11 17 -27 -3 -22 -27 -67 -16 -81
20 -13 36 -4 60 16 43 12 -10 13 -16 3 -27 -13 -16 3 -33 34 -33 32 0 29 20
-8 54 -24 22 -35 39 -31 50 8 20 51 21 67 1z m155 -70 c0 -62 -1 -65 -24 -65
-19 0 -21 2 -11 15 7 8 11 35 8 65 -2 39 0 50 12 50 12 0 15 -14 15 -65z m95
55 c0 -5 -4 -10 -10 -10 -5 0 -9 -10 -7 -22 1 -17 -3 -23 -15 -22 -13 1 -18
-5 -18 -22 0 -19 5 -24 25 -24 14 0 25 -4 25 -10 0 -5 -18 -10 -41 -10 -27 0
-38 4 -33 11 11 18 13 88 3 95 -21 13 -6 24 31 24 22 0 40 -4 40 -10z m-351
-27 c-7 -72 17 -91 127 -99 43 -3 95 -7 114 -9 19 -2 45 -4 58 -4 29 -1 30
-36 0 -52 -29 -15 -162 -15 -229 1 -30 7 -68 23 -86 36 -29 22 -31 26 -21 56
9 29 14 55 17 81 1 4 6 7 12 7 5 0 9 -8 8 -17z"/>
<path d="M2271 1049 c-6 -28 -18 -63 -26 -79 -9 -17 -20 -42 -26 -57 -8 -23
-8 -26 2 -15 33 32 38 3 8 -39 -22 -31 -23 -28 25 -43 8 -3 33 13 54 35 22 21
53 42 70 45 22 5 28 10 25 24 -3 10 0 27 6 39 9 17 9 21 -2 21 -19 0 -97 76
-97 94 0 8 -6 16 -14 19 -11 4 -17 -7 -25 -44z m72 -47 c33 -33 37 -41 29 -62
-12 -30 -98 -95 -107 -80 -3 5 -3 14 0 20 3 5 1 18 -4 28 -8 14 -5 34 12 76
12 31 24 56 27 55 3 0 22 -17 43 -37z"/>
<path d="M461 1083 c-1 -8 -11 -11 -31 -6 -31 6 -43 -10 -14 -21 8 -3 12 -2 9
4 -3 6 -2 10 3 10 17 0 22 -13 9 -28 -10 -13 -9 -14 8 -5 11 6 27 8 35 5 12
-4 13 -2 4 9 -6 8 -14 21 -17 29 -3 9 -6 10 -6 3z"/>
<path d="M610 1070 c-19 -11 -29 -19 -22 -20 14 0 72 28 72 35 0 9 -15 4 -50
-15z"/>
<path d="M1770 1061 c0 -5 7 -14 15 -21 12 -10 18 -10 30 0 8 7 15 17 15 23 0
5 -10 2 -22 -9 -19 -17 -21 -17 -15 -1 4 11 1 17 -8 17 -8 0 -15 -4 -15 -9z"/>
<path d="M2389 1031 c20 -21 40 -36 44 -34 4 3 3 11 -4 19 -9 11 -8 14 7 14
17 0 17 1 -2 14 -10 8 -20 10 -22 5 -2 -5 -13 -2 -25 6 -36 25 -35 17 2 -24z"/>
<path d="M1427 1053 c-4 -3 0 -15 10 -25 10 -12 12 -18 4 -18 -7 0 -9 -4 -6
-10 14 -23 -15 -8 -38 20 -27 31 -37 37 -37 20 0 -5 19 -23 41 -40 34 -24 45
-28 57 -18 10 9 11 13 2 16 -9 3 -9 7 1 13 11 7 11 9 1 9 -7 0 -11 4 -8 9 7
11 -18 33 -27 24z"/>
<path d="M926 1025 c5 -13 2 -15 -19 -10 -32 8 -43 -9 -27 -41 10 -17 10 -27
2 -37 -9 -11 -5 -23 19 -55 22 -31 27 -42 16 -42 -9 0 -18 8 -20 18 -4 16 -5
16 -6 -1 0 -10 6 -20 14 -23 8 -4 15 -17 15 -30 0 -17 4 -22 15 -18 18 7 20
30 3 37 -7 3 -4 6 7 6 11 1 31 4 45 7 22 4 21 3 -5 -10 -16 -8 -23 -15 -14
-15 8 -1 24 6 35 14 10 8 15 15 10 15 -11 0 14 30 26 30 5 0 6 -6 2 -12 -4 -7
-3 -10 1 -5 5 4 10 16 12 27 1 11 3 23 4 27 6 36 -28 83 -61 83 -8 0 -20 10
-25 23 -12 26 -59 38 -49 12z m88 -83 c23 -30 14 -65 -19 -80 -30 -14 -52 -7
-60 19 -4 10 -11 19 -16 19 -5 0 -9 20 -9 45 0 76 45 75 104 -3z"/>
<path d="M2805 990 c3 -5 -8 -16 -25 -25 -36 -19 -37 -20 -6 -20 13 0 22 3 20
7 -2 4 5 13 16 21 11 7 17 17 13 20 -10 11 -25 8 -18 -3z"/>
<path d="M2365 861 c-22 -10 -46 -25 -54 -34 -25 -31 23 -20 79 18 57 38 43
47 -25 16z"/>
<path d="M1615 840 c23 -26 93 -46 108 -31 8 8 5 11 -8 11 -11 0 -35 9 -53 20
-18 11 -40 20 -49 20 -14 0 -14 -2 2 -20z"/>
<path d="M2186 794 c-8 -22 -10 -21 59 -39 75 -19 132 -20 117 -2 -8 10 -3 16
21 27 38 16 22 25 -25 12 -22 -6 -50 -4 -83 5 -66 17 -82 16 -89 -3z"/>
<path d="M1842 718 c-19 -19 -14 -45 10 -62 30 -21 38 -20 38 7 0 58 -21 82
-48 55z"/>
<path d="M1560 711 c0 -5 6 -12 13 -14 10 -4 10 -6 0 -6 -15 -1 -18 -31 -3
-31 5 0 7 -7 4 -15 -4 -9 0 -15 10 -15 12 0 16 10 16 45 0 38 -3 45 -20 45
-11 0 -20 -4 -20 -9z"/>
<path d="M1730 682 c0 -35 19 -49 45 -35 13 8 11 13 -15 38 l-30 29 0 -32z"/>
<path d="M843 598 c20 -7 35 -7 50 0 18 9 14 11 -28 11 -46 -1 -48 -1 -22 -11z"/>
<path d="M1642 599 c-18 -5 -30 -14 -27 -19 3 -5 0 -12 -6 -16 -8 -4 -9 -3 -5
4 10 16 -6 15 -53 -4 -38 -15 -40 -18 -47 -70 -7 -63 4 -84 47 -84 24 0 29 4
29 25 0 28 -21 33 -40 10 -19 -23 -32 -18 -16 8 7 12 20 40 27 62 7 22 15 33
16 24 2 -9 15 -21 28 -27 25 -11 33 -36 17 -46 -5 -3 -7 -19 -4 -35 5 -34 14
-37 125 -44 50 -3 57 -1 57 15 0 13 -8 18 -30 18 -16 0 -30 5 -30 11 0 6 6 9
13 6 8 -3 20 -1 28 4 12 7 12 9 0 9 -10 0 -12 9 -8 35 7 41 -5 39 -23 -5 -7
-16 -16 -30 -21 -30 -4 0 -17 19 -28 43 -15 34 -19 37 -20 19 -1 -13 8 -36 19
-52 l20 -28 -23 -6 c-12 -3 -32 -6 -45 -6 -19 0 -23 5 -20 23 2 14 9 21 20 19
19 -3 33 14 18 23 -5 3 -10 24 -10 47 0 35 2 39 15 28 13 -11 20 -9 40 10 40
38 12 50 -63 29z"/>
<path d="M2159 567 c7 -10 21 -17 30 -17 13 0 16 -11 16 -60 0 -33 -1 -60 -3
-60 -1 0 -16 15 -33 33 l-30 32 6 -37 c3 -21 2 -38 -2 -39 -10 -1 -31 -6 -62
-15 -17 -5 -22 -4 -17 4 9 16 -26 16 -41 1 -22 -22 -43 15 -43 76 0 35 -4 54
-10 50 -6 -4 -7 -23 -4 -44 6 -40 -12 -71 -42 -71 -8 0 -14 -10 -14 -25 0 -24
0 -24 44 -11 36 11 50 11 82 0 21 -7 45 -21 52 -31 13 -17 14 -16 7 5 -6 19 0
25 40 42 53 23 123 26 149 7 20 -15 76 -11 76 5 0 7 -14 8 -36 5 -34 -6 -35
-5 -20 12 20 22 21 51 1 51 -8 0 -15 5 -15 10 0 6 7 10 16 10 9 0 14 8 13 18
-3 34 1 42 25 42 14 0 28 5 32 11 5 9 -11 10 -62 5 -96 -10 -105 -10 -139 -1
-27 8 -29 7 -16 -8z m146 -24 c-5 -39 -6 -40 -13 -22 -5 12 -13 14 -29 8 -40
-15 -25 -79 18 -79 10 0 20 6 23 13 3 6 5 3 3 -8 -5 -46 -87 -17 -87 32 0 31
26 63 52 63 10 0 18 5 18 10 0 6 4 10 9 10 5 0 8 -12 6 -27z"/>
<path d="M2458 549 c-5 -33 7 -44 39 -37 17 3 16 5 -4 22 -12 11 -19 25 -16
32 3 8 1 14 -5 14 -5 0 -12 -14 -14 -31z"/>
<path d="M595 539 c-22 -17 -41 -34 -43 -39 -2 -5 7 -28 19 -50 l23 -40 22 77
c12 43 22 79 21 80 -1 1 -20 -12 -42 -28z"/>
<path d="M2383 553 c-8 -3 -11 -14 -7 -31 5 -22 4 -25 -7 -14 -23 21 -30 13
-26 -30 4 -49 22 -61 30 -21 3 15 10 45 15 66 5 20 9 37 8 36 0 0 -7 -3 -13
-6z"/>
<path d="M1913 535 c-3 -9 -3 -18 0 -22 10 -10 37 6 37 22 0 20 -29 20 -37 0z"/>
<path d="M2000 486 c0 -44 3 -56 16 -56 12 0 14 10 12 52 -4 74 -28 77 -28 4z"/>
<path d="M1178 485 c-6 -49 -4 -64 8 -53 3 3 4 28 2 54 l-3 49 -7 -50z"/>
<path d="M2097 523 c-2 -4 -2 -27 1 -50 3 -29 9 -43 19 -43 11 0 13 11 11 47
-3 42 -19 67 -31 46z"/>
<path d="M1820 471 c0 -24 4 -31 20 -31 11 0 20 3 20 6 0 3 -9 17 -20 31 l-20
26 0 -32z"/>
<path d="M1910 465 c0 -38 0 -38 24 -29 10 4 16 18 16 35 0 22 -5 29 -20 29
-16 0 -20 -7 -20 -35z"/>
<path d="M1410 450 c0 -6 11 -8 27 -4 22 6 25 4 20 -10 -7 -18 -6 -19 17 -10
33 13 17 34 -24 34 -22 0 -40 -5 -40 -10z"/>
<path d="M1828 419 c-10 -5 -18 -19 -18 -29 0 -16 7 -20 38 -20 31 0 38 4 38
20 0 11 -6 20 -13 20 -7 0 -13 5 -13 10 0 13 -10 12 -32 -1z"/>
<path d="M1365 410 c3 -5 13 -10 21 -10 23 0 16 -19 -10 -26 -13 -3 -60 -4
-105 -2 -51 2 -80 -1 -78 -7 2 -6 28 -9 59 -7 48 3 159 -8 238 -24 17 -3 21
-2 12 4 -10 7 -8 11 9 15 13 4 26 2 29 -2 3 -5 44 -8 92 -7 48 0 84 4 80 7 -4
3 -44 14 -90 24 -72 16 -85 17 -93 4 -7 -12 -9 -11 -9 2 0 12 -17 19 -69 28
-85 14 -94 14 -86 1z"/>
<path d="M1933 362 c-47 -7 -21 -22 37 -22 33 0 60 4 60 9 0 10 -62 18 -97 13z"/>
<path d="M1015 304 l-50 -14 60 5 c33 3 64 10 69 15 13 13 -17 11 -79 -6z"/>
<path d="M1239 271 c-31 -25 -18 -43 21 -29 39 13 45 25 21 37 -15 8 -24 6
-42 -8z"/>
<path d="M1773 273 c-7 -5 3 -14 29 -25 39 -17 39 -17 36 5 -3 23 -42 35 -65
20z"/>
<path d="M1722 225 c-15 -19 -18 -35 -15 -68 4 -32 1 -46 -12 -57 -38 -32
-125 -6 -145 43 l-9 22 0 -23 c-2 -43 87 -99 129 -83 45 17 62 40 66 87 3 27
9 53 13 57 15 15 51 -3 66 -33 22 -42 45 -52 79 -35 35 19 67 57 56 69 -14 14
-40 -2 -40 -25 0 -18 -5 -20 -26 -16 -19 3 -24 1 -20 -10 4 -9 1 -13 -6 -11
-7 3 -14 19 -16 37 -3 24 -10 34 -30 42 -15 5 -35 14 -44 19 -24 13 -24 13
-46 -15z"/>
<path d="M1595 205 c-32 -31 -33 -73 -2 -84 42 -16 81 24 59 60 -7 10 -9 25
-6 34 10 24 -24 18 -51 -10z"/>
</g>
</svg>
